<?xml version="1.0" encoding="utf-8"?>
<!-- Generator: Adobe Illustrator 18.0.0, SVG Export Plug-In . SVG Version: 6.00 Build 0)  -->
<!DOCTYPE svg PUBLIC "-//W3C//DTD SVG 1.1//EN" "http://www.w3.org/Graphics/SVG/1.1/DTD/svg11.dtd">
<svg version="1.1" id="Layer_1" xmlns="http://www.w3.org/2000/svg" xmlns:xlink="http://www.w3.org/1999/xlink" x="0px" y="0px"
	 viewBox="0 442 1920 235.6" enable-background="new 0 442 1920 235.6" xml:space="preserve">
<g>
	<g>
		<defs>
			<rect id="SVGID_1_" y="411.4" width="1920" height="266.2"/>
		</defs>
		<clipPath id="SVGID_2_">
			<use xlink:href="#SVGID_1_"  overflow="visible"/>
		</clipPath>
		<g clip-path="url(#SVGID_2_)">
			<path fill="#F2383E" d="M1942.9,537.2c-1.1,1.1-2.1,2.3-3.2,3.4c-0.4,0.5-1.1,1-1.6,1.2c-0.3,0.1-0.8,0-1-0.3
				c-0.1-0.3-0.3-0.8-0.1-1c1.8-2.6,1.6-5.6,2.1-8.6c0.3-2.2,0.3-4.3,0.5-6.4c0.4-3.7,1.1-7.4,0.5-11.1c-0.3-2.2-0.3-4.4-0.3-6.6
				c0-2.2,0.3-4.3,0-6.4c-0.5-4.4-1.2-8.8-1.9-13.2c-0.1-0.4-0.3-1-0.5-1.5c-2.1,1.9-2.6,4.3-3.6,6.4c-0.8,2.1-1.5,4.3-2.5,6.2
				c-0.1,0.4-1.1,0.7-1.8,0.7c-0.4,0-0.8-0.8-1-1.2c-0.3-1.9-0.4-3.8-0.5-5.8c-0.4-4.1-0.7-8.2-0.1-12.3c0.4-3.6,0.5-7.1,1-10.7
				c0.4-3.2,1-6.3,1.4-9.3c0.1-1.4,0.3-2.7,0.3-4.1c0-2.6-0.1-5.3-0.3-8c-0.1-2.7-0.4-5.5-0.5-8.4c-0.1,0-0.3,0-0.3,0
				c0,0.3-0.1,0.5-0.1,0.8c-0.3,3-0.4,6.2-0.8,9.2c-0.3,1.6-1.2,3.3-1.8,4.9c-1,3-1.8,6-3,8.9c-1.5,3.7-3.3,7.3-5.3,10.7
				c-2.3,4-5.1,7.8-7.1,12.1c-1.4,2.9-3.6,5.5-4.5,8.6c-0.3,0.8-0.8,1.9-1.8,1.5c-0.5-0.1-0.8-1.4-0.8-2.2c-0.1-2.9,0-5.9,0-8.8
				c0-1.8,0.1-3.4,0-5.2c-0.1-1.9-0.4-3.8-0.7-5.8c-0.1,0.1-0.3,0.3-0.4,0.4c-1.2,1.9-2.5,4-3.8,5.8c-2.2,2.7-4.7,5.5-7,8.2
				c-0.7,0.8-1.1,1.8-1.8,2.5c-0.3,0.3-0.8,0.4-1.2,0.3c-0.3-0.1-0.4-0.7-0.5-1.1c-0.1-0.3,0-0.7-0.1-1c-0.1-2.3-0.4-4.5-0.5-6.9
				c0-1.9,0-3.8,0.1-5.8c0-1.6,0.1-3.2,0.3-4.8c0.3-2.1,0.5-4,0.8-6.3c-0.4,0.4-0.8,0.5-1,0.8c-1.6,2.1-3.3,4.1-4.8,6.3
				c-1.6,2.3-3,4.8-3.6,7.7c-0.5,2.5-1.1,4.8-1.6,7.3c-0.5,2.3-1.4,4.5-1.8,6.9c-0.8,4.3-1.4,8.4-2.1,12.6c-0.5,3.3-1.1,6.4-1.6,9.7
				c-0.1,1.2-0.7,1.6-1.9,1.2c0-1.4,0-2.9,0-4.3c-0.1-2.3-0.4-4.7-0.5-7c-0.3-4-1-7.8-2.1-11.7c-0.8-2.9-1.8-5.9-2.5-8.8
				c-0.5-1.9-1-4-1.5-6.3c-0.8,2.2-1.5,4.1-2.2,5.9c-0.1,0.4-0.7,1.1-0.8,1c-0.5-0.1-1.2-0.5-1.4-1c-0.5-2.3-1.1-4.7-1.5-7.1
				c-0.5-3.6-1-7.1-1.4-10.7c-0.1,0-0.3,0-0.4-0.1c-1.2,2.9-2.3,5.9-3.6,8.8c-0.4,0.8-0.7,1.8-1,2.6c-1,4-2.6,7.4-5.5,10.4
				c-3.6,3.7-7,7.5-10.6,11.4c-0.5,0.5-1.1,1-1.6,0.4c-0.3-1.9-0.3-3.8-0.8-5.6c-0.8-2.6-2.2-5.2-2.5-8c-0.1-1.5-0.3-3.2-0.7-4.7
				c-0.5-2.5-1.2-4.8-1.6-7.1c-0.3-1.6-0.4-3.3-0.7-5.2c-1.4,1.9-2.6,3.6-3.4,5.3c-1.4,2.5-2.5,5.1-3.6,7.7
				c-1.5,3.7-4.4,6.4-6.7,9.6c-0.1,0.1-0.3,0.1-0.5,0.1c0.1,0.1,0.1,0.1,0.3,0.3c0.3,0,0.5,0,1,0c-1.1,0.7-1.9,1.2-1.6,2.3
				c-0.5,0.4-0.8,0.5-1.2,0.8c-0.4,0.3-0.7,0.5-1.1,1c-0.7,0.7-1.5,1.4-1.9,2.2c0-0.1,0-0.1,0-0.3c-0.4-3.6-1-7-1.5-10.6
				c-0.4-2.6-1-5.2-1.4-7.8c-0.5-3.7-1-7.3-1.2-11c-0.3-3.7-0.3-7.5-0.3-11.2c0-3.2,0.1-6.3,0.1-9.5c0-1.6,0.1-3.3,0.3-4.9
				c0.1-1.2,0.1-2.5,0.3-3.8c-0.1,0-0.3,0-0.3-0.1c-0.1,0.4-0.4,0.7-0.5,1.1c-0.5,2.5-1.1,4.8-1.8,7.3c-1,3.8-1.9,7.8-3,11.7
				c-0.4,1.2-1,2.5-1.5,3.6c-0.8,1.4-1.8,2.6-2.7,4c-0.3,0.3-0.8,0.4-1.2,0.4c-0.3-0.1-0.7-0.5-0.7-1c-0.4-1.9-0.7-3.8-1-5.9
				c-0.1,0.3-0.3,0.4-0.3,0.5c-0.3,1.2-0.5,2.5-1,3.6c-0.5,1.8-1.4,3.6-1.9,5.5c-0.8,2.7-1.6,5.5-2.3,8.2c-0.5,2.2-1.1,4.4-1.6,6.6
				c-0.3,1-0.8,1.6-1.9,1.4c-1-0.1-1-1-1-1.8c0-0.7-0.1-1.4-0.1-2.1c-0.1,0-0.3,0-0.4,0c-1.2,1.6-2.5,3.2-3.6,4.8
				c-0.7,1-1.1,2.1-1.4,3.3c-0.5,2.3-1,4.8-1.6,7.1c-0.4,1.5-1.2,3-2.1,4.4c-0.5,1.1-1.2,2.2-2.1,3.3c-0.3,0.3-0.8,0.4-1.2,0.4
				c-0.1,0-0.3-0.5-0.4-1c-0.3-3.7-0.5-7.5-1-11.2c-0.4-4-0.8-8-1.2-11.9c-0.1-1.5-0.1-3-0.1-4.5c0-1.1,0.1-2.2,0.3-3.6
				c-1.1,2.5-1.9,4.5-3,6.7c-0.8,1.6-1.6,3.4-2.5,5.1c-0.5,1.1-1.4,2.2-1.9,3.4c-1.4,2.7-2.5,5.5-4,8.2c-1.2,2.3-2.7,4.5-4.1,6.9
				c-0.7,1.2-1.9,1.8-3.3,1.2c0.1-2.1,0.3-4.1,0.5-6.2c1-5.2,0.5-10.6,0.5-15.8c0-4.3-0.3-8.6-0.7-12.9c-0.3-3.3-0.8-6.6-1.1-10
				c-0.3-2.5-0.7-4.9-0.7-7.5c0-2.1,0.3-4,0.4-6.3c-0.4,0.4-0.7,0.7-1,1.1c-1.9,3.3-3.8,6.6-5.8,9.9c-1.1,1.9-2.1,4-2.9,6
				c-1.2,3.2-2.2,6.3-3.3,9.5c-0.7,2.2-1.4,4.4-1.9,6.6c-0.8,3-1.4,6.2-2.3,9.2c-1,2.6-2.2,5.2-3.6,7.7c-0.3,0.5-1.2,1.1-1.8,1
				c-0.8-0.1-0.5-1-0.4-1.8c0.1-2.6,0.1-5.2,0.1-7.8c0-3-0.4-6-0.4-8.9c0-2.3,0.1-4.7,0.3-7c-0.1,0-0.1,0-0.3-0.1
				c-1.2,1.8-2.7,3.6-3.8,5.5c-1.5,2.6-2.7,5.5-4.4,8c-2.5,3.6-3.3,7.8-5.2,11.7c-0.7,1.4-1.2,2.7-1.9,4c-1,2.1-2.2,4-3,6
				c-1,2.3-1.8,4.7-2.7,6.9c-0.1,0.4-0.8,0.7-1.2,1.1c-0.3-0.4-0.8-0.8-1-1.2c-0.3-1-0.3-1.9-0.5-2.9c-0.1-0.8-0.4-1.8-0.7-2.6
				c-0.3,0.7-0.4,1.4-0.5,1.9c0,0.3-0.1,0.4-0.1,0.7c-0.5-2.6-1-5.3-1.4-8.1c-0.3-1.6-0.1-3.3-0.4-4.8c-0.5-2.9-1.4-5.9-2.2-8.9
				c-1.8,1.4-3.8,2.9-5.9,4.5c-3.2,2.3-6.2,4.7-9.3,6.9c-0.5,0.4-1.8,0.5-2.3,0.3c-0.4-0.3-0.3-1.4-0.4-2.2c0-0.3,0.1-0.7,0-1.1
				c-0.1-1.6-0.4-3.3-0.3-5.1c0.1-5.2,0.5-10.4,0.8-15.6c0-0.5,0.1-1.1,0.1-1.6c0-2.3,0-4.8,0-7.5c-2.7,2.7-5.2,5.2-7.4,7.8
				c-2.9,3.6-5.3,7.5-8.4,11c-1.5,1.6-3.2,3.4-4.7,5.1c-1-5.2-2.2-10.3-3.3-15.5c-0.4-2.1-0.7-4.3-1.1-6.4c-0.3-1.5-0.3-3.2-0.4-4.7
				c-0.3,0.3-0.3,0.5-0.3,0.8c-0.4,1.9-0.8,3.7-1.2,5.6c-0.8,2.9-1.6,5.6-2.6,8.4c-0.5,1.6-1.6,3.2-2.5,4.8c-1,2.1-1.6,4.1-2.6,6.2
				c-0.1,0.4-0.7,0.5-1.4,1.1c-1.2-4.8-2.5-9.3-3.7-14c-2.2,1.6-3.3,4-4.5,6.2c-0.5,1-1.1,2.1-1.6,3.2c0-0.1,0-0.4,0-0.5
				c-0.5,1-1,1.5-1.4,2.1c-0.5,0.8-1.1,1.8-1.8,2.7c-0.3,0-0.4,0-0.7,0.1c-0.1-0.4-0.3-0.8-0.3-1.1c0-0.8,0.1-1.6,0.3-2.5
				c0.1-1.8,0.4-3.6,0.5-5.3c0.1-1.9,0.5-4,0.5-5.9c-0.1-3.4-0.5-7-1-10.4c-0.3-3-0.7-6.2-1-9.2c-0.1,0-0.3,0-0.3-0.1
				c-0.5,1.2-1,2.3-1.5,3.6c-0.8,2.3-1.9,4.7-2.2,7.3c-0.1,1.5-0.5,3-1.2,4.4c-0.8,1.6-1.9,3.2-2.9,4.7c-1.9,3.3-4,6.6-4.8,10.4
				c-0.7,3.6-1.6,7.1-2.3,10.7c-0.7,3.3-1.2,6.7-1.6,10c-0.1,1-0.1,1.9-0.3,2.9c-0.3-1.1-0.5-2.2-0.7-3.3c-0.4-4.3-0.4-8.6-0.7-13
				c-0.4-4.7-0.7-9.2-1.4-13.7c-0.4-2.9-1.1-5.8-1.9-8.5c-1.5-4.5-3.2-9.1-4.9-13.6c-0.7-1.8-1.8-3.6-2.7-5.5
				c-2.1,2.5-2.9,6.2-7,5.6c-1.1-5.5-2.1-10.7-3.2-15.9c-0.1,0-0.3,0-0.4,0c-0.3,1-0.7,1.9-1,3c-0.5,2.2-1.1,4.3-1.6,6.4
				c-0.7,2.3-1.6,4.5-1.9,7c-0.4,3.3-2.1,6.2-3.4,9.1c-1.5,2.9-3.3,5.5-4.8,8.2c-2.3,4.5-4.5,8.9-6.9,13.4c0.3-1.9,0.5-4,1.1-5.9
				c0.8-3.4,1.5-7,2.3-10.4c0.8-3,1.8-6,2.6-9.1c0.4-1.4,0.5-2.6,0.8-4c0.3-2.6,0.5-5.3,0.8-8c0.3-2.7,0.3-5.5,0.5-8.4
				c-0.1,0-0.3,0-0.3,0c-0.1,0.3-0.3,0.5-0.3,0.8c-0.7,3-1.2,6-2.1,8.9c-0.5,1.6-1.6,3.2-2.5,4.7c-1.4,2.7-2.6,5.8-4.1,8.4
				c-2.1,3.4-4.3,6.9-6.7,9.9c-0.3,0.3-0.4,0.5-0.7,0.8c-0.3-1.2-0.4-2.6-0.7-3.8c-0.3,0-0.4,0-0.7,0c-0.1,1.1-0.1,2.3-0.3,3.4
				c-0.3,1.1-0.5,2.2-0.8,3.4c-1.9,2.3-3.8,4.7-5.5,7.3c-1.8,2.7-4.3,4.9-5.6,8c-0.4,0.8-1.1,1.8-1.9,1.2c-0.4-0.3-0.5-1.5-0.5-2.2
				c0.3-2.9,0.7-5.9,1.1-8.8c0.3-1.8,0.7-3.4,0.8-5.2c0.1-1.9,0-3.8,0-5.8c-0.1,0.1-0.3,0.3-0.4,0.4c-1.5,1.8-3,3.6-4.7,5.2
				c-2.6,2.5-5.3,4.8-8,7.1c-0.8,0.7-1.4,1.5-2.2,2.2c-0.3,0.3-1,0.3-1.2,0.1c-0.3-0.1-0.3-0.7-0.4-1.1c0-0.3,0-0.7,0-1
				c0.1-2.3,0.1-4.5,0.4-6.9c0.1-1.9,0.5-3.8,0.8-5.6c0.3-1.5,0.5-3.2,1-4.7c0.4-1.9,1.1-3.8,1.6-6c-0.5,0.3-0.8,0.4-1.1,0.7
				c-1.9,1.8-3.8,3.7-5.6,5.5c-1.9,2.1-3.6,4.4-4.5,7.1c-0.8,2.3-1.8,4.7-2.6,7c-0.8,2.2-1.9,4.3-2.6,6.6c-1.4,4-2.5,8.1-3.7,12.2
				c-1,3.2-1.9,6.3-2.9,9.5c-0.4,1.2-1,1.5-2.1,1c0.1-1.4,0.4-2.7,0.5-4.3c0.1-2.3,0.1-4.7,0.4-7c0.3-4,0.1-7.8-0.5-11.8
				c-0.4-3-1-6-1.4-9.1c-0.3-2.1-0.4-4-0.5-6.4c-1.1,2.1-2.1,3.8-3,5.6c-0.3,0.4-0.8,1-1,0.8c-0.4-0.3-1.1-0.7-1.1-1.2
				c-0.3-2.5-0.5-4.8-0.5-7.3c0-3.6,0-7.1,0-10.7c-0.1,0-0.3-0.1-0.4-0.1c-1.5,2.7-3.2,5.5-4.7,8.2c-0.4,0.8-1,1.6-1.2,2.5
				c-1.5,3.7-3.7,7-6.9,9.6c-4,3.3-8,6.6-11.9,9.9c-0.5,0.5-1.2,0.8-1.8,0.1c0-1.9,0.3-3.8,0-5.8c-0.4-2.7-1.5-5.3-1.4-8.2
				c0.1-1.5,0.1-3.2,0-4.7c-0.1-2.5-0.5-4.9-0.7-7.3c-0.1-1.6,0-3.3,0-5.3c-1.5,1.8-3,3.2-4.1,4.8c-1.6,2.3-3.2,4.7-4.7,7.1
				c-2.1,3.4-5.2,5.8-8,8.5c-0.1,0.1-0.4,0.1-0.5,0.1c0.1,0.1,0.1,0.3,0.3,0.3c0.3,0,0.5,0.1,1,0.1c-1.1,0.5-2.1,1-1.9,2.1
				c-0.5,0.3-1,0.4-1.2,0.7c-0.4,0.3-0.8,0.5-1.2,0.8c-0.3,0.3-0.7,0.5-1,0.7c-0.1-0.5-0.1-1.1-0.3-1.8c-0.4-2.6-1-5.2-1.4-7.8
				c-0.5-3.7-1-7.3-1.2-11c-0.3-3.7-0.3-7.5-0.3-11.2c0-3.2,0.1-6.3,0.1-9.5c0-1.6,0.1-3.3,0.3-4.9c0.1-1.2,0.1-2.5,0.3-3.8
				c-0.1,0-0.3,0-0.3-0.1c-0.1,0.4-0.4,0.7-0.5,1.1c-0.5,2.5-1.1,4.8-1.8,7.3c-1,3.8-1.9,7.8-3,11.7c-0.4,1.2-1,2.5-1.5,3.6
				c-0.8,1.4-1.8,2.6-2.7,4c-0.3,0.3-0.8,0.4-1.2,0.4c-0.3-0.1-0.7-0.5-0.7-1c-0.4-1.9-0.7-3.8-1-5.9c-0.1,0.3-0.3,0.4-0.3,0.5
				c-0.3,1.2-0.5,2.5-1,3.6c-0.5,1.8-1.4,3.6-1.9,5.5c-0.8,2.7-1.6,5.5-2.3,8.2c-0.5,2.2-1.1,4.4-1.6,6.6c-0.3,1-0.8,1.6-1.9,1.4
				c-1-0.1-1-1-1-1.8c0-0.7-0.1-1.4-0.1-2.1c-0.1,0-0.3,0-0.4,0c-1.2,1.6-2.5,3.2-3.6,4.8c-0.7,1-1.1,2.1-1.4,3.3
				c-0.5,2.3-1,4.8-1.6,7.1c-0.4,1.5-1.2,3-2.1,4.4c-0.5,1.1-1.2,2.2-2.1,3.3c-0.3,0.3-0.8,0.4-1.2,0.4c-0.1,0-0.3-0.5-0.4-1
				c-0.3-3.7-0.5-7.5-1-11.2c-0.4-4-0.8-8-1.2-11.9c-0.1-1.5-0.1-3-0.1-4.5c0-1.1,0.1-2.2,0.3-3.6c-1.1,2.5-1.9,4.5-3,6.7
				c-0.8,1.6-1.6,3.4-2.5,5.1c-0.5,1.1-1.4,2.2-1.9,3.4c-1.4,2.7-2.5,5.5-4,8.2c-1.2,2.3-2.7,4.5-4.1,6.9c-0.8,1.2-1.9,1.8-3.3,1.2
				c0.1-2.1,0.3-4.1,0.5-6.2c1-5.2,0.5-10.6,0.5-15.8c0-4.3-0.3-8.6-0.7-12.9c-0.3-3.3-0.8-6.6-1.1-10c-0.3-2.5-0.7-4.9-0.7-7.5
				c0-2.1,0.3-4,0.4-6.3c-0.4,0.4-0.7,0.7-1,1.1c-1.9,3.3-3.8,6.6-5.8,9.9c-1.1,1.9-2.1,4-2.9,6c-1.2,3.2-2.2,6.3-3.3,9.5
				c-0.7,2.2-1.4,4.4-1.9,6.6c-0.8,3-1.4,6.2-2.3,9.2c-1,2.6-2.2,5.2-3.6,7.7c-0.3,0.5-1.2,1.1-1.8,1c-0.8-0.1-0.5-1-0.4-1.8
				c0.1-2.6,0.1-5.2,0.1-7.8c0-3-0.4-6-0.4-8.9c0-2.3,0.1-4.7,0.3-7c-0.1,0-0.1,0-0.3-0.1c-1.2,1.8-2.7,3.6-3.8,5.5
				c-1.5,2.6-2.7,5.5-4.4,8c-2.5,3.6-3.3,7.8-5.2,11.7c-0.7,1.4-1.2,2.7-1.9,4c-1,2.1-2.2,4-3,6c-1,2.3-1.8-1.1-2.6,1.1
				c-0.1,0.4-0.8,0.7-1.2,1.1c-0.3-0.4-0.8-0.8-1-1.2c-0.3-1-0.3-1.9-0.5-2.9c-0.1-0.8-0.4-1.8-0.7-2.6c-0.3,0.7-0.4,1.4-0.5,1.9
				c-0.7,2.7-1.1,5.6-2.1,8.4c-1.1,3.4-2.6,6.7-4.1,10c-1.4,3-2.7,6-4.3,8.9c-0.3,0.4-1,0.7-1.5,1c-0.3-0.5-0.7-1-0.7-1.5
				c-0.4-3-0.5-6-1.4-8.9c-0.8-2.7-2.5-5.1-3.8-7.5c-1-1.8-2.2-3.6-3.4-5.5c-0.3,0.4-0.4,0.5-0.4,0.7c-0.5,1.1-1.1,2.2-1.9,3.2
				c-0.7,0.8-2.1,0.4-2.2-0.4c-0.3-1.9-0.7-3.8-0.4-5.8c0.3-2.2-0.4-4-0.8-6c-0.4-1.9-1.1-3.7-1.6-5.5c-0.4-1.5-1-2.9-1.5-4.7
				c-0.3,0.5-0.5,1-0.7,1.4c-1.5,2.9-3.2,5.9-4.7,8.8c-1.5,3-3,5.9-4.5,8.9c-0.5,1.1-0.5,2.6-2.3,2.7c-0.1-0.3-0.3-0.4-0.3-0.7
				c0.1-2.1,0.1-4.3,0.4-6.3c0.4-3.3,1.6-6.6,1.2-10c-0.4-3.3-0.3-6.7-0.8-10c-1-5.2-2.2-10.3-3.3-15.5c-0.4-2.1-0.7-4.3-1.1-6.4
				c-0.3-1.5-0.3-3.2-0.4-4.7c-0.3,0.3-0.3,0.5-0.3,0.8c-0.4,1.9-0.8,3.7-1.2,5.6c-0.8,2.9-1.6,5.6-2.6,8.4
				c-0.5,1.6-1.6,3.2-2.5,4.8c-1,2.1-1.6,4.1-2.6,6.2c-0.1,0.4-0.7,0.5-1.4,1.1c-1.2-4.8-2.5-9.5-3.7-14c-2.2,1.6-3.3,4-4.5,6.2
				c-1,1.6-1.6,3.6-2.6,5.3c-0.4,0.7-0.8,1.4-1.4,1.8c-0.3,0.3-0.8,0.3-1.4,0.4c-0.1-0.4-0.3-0.8-0.3-1.1c0-0.8,0.1-1.6,0.3-2.5
				c0.1-1.8,0.4-3.6,0.5-5.3c0.1-1.9,0.5-4,0.5-5.9c-0.1-3.4-0.5-7-1-10.4c-0.3-3-0.7-6.2-1-9.2c-0.1,0-0.3,0-0.3-0.1
				c-0.5,1.2-1,2.3-1.5,3.6c-0.8,2.3-1.9,4.7-2.2,7.3c-0.1,1.5-0.5,3-1.2,4.4c-0.8,1.6-1.9,3.2-2.9,4.7c-1.9,3.3-4,6.6-4.8,10.4
				c-0.7,3.6-1.6,7.1-2.3,10.7c-0.7,3.3-1.2,6.7-1.6,10c-0.5,4-0.8,8-1.1,12.1c-0.1,1.1,0,2.3-0.1,3.4c0,0.5-0.5,1-0.8,1.5
				c-0.4-0.4-1.1-0.7-1.4-1.1c-0.4-0.7-0.7-1.6-1-2.3c-0.3,0.5-0.4,1.2-0.4,1.8c0,2.2,0.1,4.3,0,6.4c-0.3,3.6-0.8,12.9-1.2,16.5
				c-0.3,1.9-0.4,3.7-0.7,5.6c-0.5,3.4-1.4,6.7-1.6,10.2c-0.4,4.1-0.4,8.4-0.4,12.6c0,3,0.4,6,1,8.9c0.7,3.6,1.4,36.1,2.5,39.5
				c0.7,2.3,1.8,4.5,2.5,6.9c0.3,1,0.7,1,1.4,1s1.5-0.1,2.2,0c1,0.1,2.1,0.4,2.7,1c1.1,0.8,2.5,1.4,3.7,0.8c2.9-1.4,5.9-1.4,8.9-0.5
				c0.8,0.3,1.8,0,2.7,0c1.2,0,2.6-0.1,3.8-0.1c2.3,0,4.7,0.3,7,0.4c1.9,0,4-0.3,5.9-0.1c2.1,0.1,4.1,0.5,6.2,0.7
				c1.5,0.1,3.2,0.1,4.7,0.4c2.7,0.3,5.5,0.7,8.2,1c2.5,0.3,4.8,0.3,7.3,0.5c3.3,0.4,6.6,0.4,9.7-0.5c3.7-1.2,7.4-1.9,11.2-1.5
				c1.8,0.1,3.7,0.1,5.5-0.1c3.3-0.5,6.4-0.5,9.6,0c2.7,0.4,5.5,0.3,8.2-0.3c1.9-0.4,3.8-0.8,5.9-1.2c1.5-0.3,2.9-0.3,4.4-0.3
				c1.6,0,3.4,0.3,5.1,0.1c2.5-0.1,4.9-0.7,7.3-0.8c0.5,0,0.7-0.1,0.7-0.7c0-1.5,41.1-4.5,41.1-3.8c0.4-0.3,3.6,1.4,5.8,0.5
				c4-1.5,8.1-2.9,12.1-4.3c1.9,0.4,3.2,0.5,4,0.5c0.1,0.3,0.1,0.7,0.3,1c2.2,0.1,3.8,0.3,5.5,0.4c0.7,0,1.2,0,1.9,0
				c2.1-0.3,4.3-0.8,6.3-0.8c3.3,0,6.6,0.5,9.9,0.8c3.2,0.3,6.3,0.7,9.6,1c3.8,0.3,7.8,0.4,11.7,0.5c3.4,0.1,7-0.1,10.4-0.1
				c2.7,0,5.5,0.1,8.4,0.3c1.8,0,3.6,0.1,5.3,0.3c2.3,0.3,4.5,0.7,6.9,0.8c2.7,0.1,5.5,0.1,8.2,0.3c1.9,0.1,3.8,0.3,5.8,0.4
				c2.2,0,4.5,0.3,6.6-0.1c4.5-1,9.1-2.1,13.7-1.6c0.1,1.1,4.3,2.1,5.5,2.1c2.6,0,8.6-0.4,11.2,0.1c4.9,0.8,8-2.6,12.9-1.5
				c3.6,0.7,7,1.5,10.6,2.1c3.4,0.5,7,1.1,10.4,1.6c0.3,0.8,0.7,1.5,0.8,2.3c0.3,1,0.7,1,1.4,1s1.5-0.1,2.2,0c1,0.1,2.1,0.4,2.7,1
				c1.1,0.8,2.5,1.4,3.7,0.8c2.9-1.4,5.9-1.4,8.9-0.5c0.8,0.3,1.8,0,2.7,0c1.2,0,2.6-0.1,3.8-0.1c2.3,0,4.7,0.3,7,0.4
				c0.1,0,0.3,0,0.4,0c5.2,0.7,10.4,1.2,15.6,1.6c3.6,0.3,7.1,0.4,10.7,0.4c1.9,0.1,3.7,0.3,5.6,0.4c3.3,0.4,6.6,0.4,9.7-0.5
				c3.7-1.2,7.4-1.9,11.2-1.5c1.8,0.1,3.7,0.1,5.5-0.1c3.3-0.5,6.4-0.5,9.6,0c2.7,0.4,5.5,0.3,8.2-0.3c1.9-0.4,3.8-0.8,5.9-1.2
				c1.5-0.3,2.9-0.3,4.4-0.3c1.6,0,3.4,0.3,5.1,0.1c2.5-0.1,4.9-0.7,7.3-0.8c0.5,0,0.7-0.1,0.7-0.7c0-1.5,18.7-2.3,18.9-1.1
				c0.4,2.2,22.2,2.3,22.2,3.2c0.4-0.3,0.5-0.5,0.8-0.7c1.4-1.8,2.7-3.6,4.9-4.4h0.1c0,0.1,0,0.4,0,0.4c2.3,4.9,2.3,0.3,19.3,1.1
				c0.5,1.2,12.1,2.2,12.5,2.9c2.2-0.1,3.8-0.3,5.5-0.4c0.7,0,1.2-0.1,1.9-0.3c2.1-0.5,4.1-1.4,6.2-1.6c3.3-0.4,6.6-0.4,9.9-0.5
				c3.2-0.1,6.4-0.1,9.6-0.4c3.8-0.3,7.8-0.5,11.7-1c3.4-0.4,6.9-1.1,10.3-1.5c2.7-0.4,5.5-0.5,8.2-0.8c1.8-0.1,3.6-0.4,5.3-0.4
				c2.3-0.1,4.7,0.1,7,0c2.7-0.1,5.5-0.5,8.2-0.8c1.9-0.1,3.8-0.3,5.8-0.4c2.2-0.3,4.5-0.3,6.6-1.1c4.4-1.5,8.6-3.3,13.3-3.4
				c1.5,0,2.3-29.6,2.3-31.1c0-0.3,0-0.4,0-0.7c0-4.4,1.5-8.4,3.6-12.1c1-1.9,2.1-3.8,2.6-5.8c0.7-2.5,0.8-5.1,1.2-7.5
				c0.4-2.6,1-5.2,1.4-7.8c0.5-3.4,1.1-6.9,1.8-10.3c0.1-0.8,0.4-1.6,0.7-2.6C1943.2,537.1,1943,537.1,1942.9,537.2z"/>
			<path fill="#F2383E" d="M-92.2,536.9c0.3,1,0.5,1.8,0.7,2.6c0.5,3.4,1.2,6.9,1.8,10.3c0.4,2.6,1,5.2,1.4,7.8
				c0.4,2.5,0.5,5.1,1.2,7.5c0.5,2.1,1.6,4,2.6,5.8c1.9,3.8,3.6,7.8,3.6,12.1c0,0.3,0,0.4,0,0.7c-0.1,1.5,0.7,31.1,2.3,31.1
				c4.7,0.1,8.9,1.9,13.3,3.4c2.1,0.7,4.4,0.8,6.6,1.1c1.9,0.3,3.8,0.3,5.8,0.4c2.7,0.3,5.5,0.7,8.2,0.8c2.3,0.1,4.7,0,7,0
				c1.8,0,3.6,0.3,5.3,0.4c2.7,0.3,5.5,0.5,8.2,0.8c3.4,0.4,6.9,1.1,10.3,1.5c3.8,0.4,7.8,0.8,11.7,1c3.2,0.3,6.4,0.3,9.6,0.4
				c3.3,0.1,6.6,0.1,9.9,0.5c2.1,0.3,4.1,1.1,6.2,1.6c0.5,0.1,1.2,0.3,1.9,0.3c1.6,0.1,3.3,0.3,5.5,0.4c0.3-0.7,11.8-1.8,12.5-2.9
				c17-0.7,17,3.8,19.3-1.1c0-0.1,0-0.3,0-0.4h0.1c2.2,0.8,3.6,2.6,4.9,4.4c0.1,0.3,0.3,0.5,0.8,0.7c0.1-0.8,21.8-0.8,22.2-3.2
				c0.3-1.2,18.8-0.3,18.9,1.1c0,0.4,0,0.5,0.7,0.7c2.5,0.1,4.9,0.7,7.3,0.8c1.6,0.1,3.4-0.1,5.1-0.1c1.5,0,2.9,0,4.4,0.3
				c1.9,0.3,3.8,0.8,5.9,1.2c2.7,0.5,5.5,0.5,8.2,0.3c3.2-0.4,6.4-0.5,9.6,0c1.8,0.3,3.7,0.4,5.5,0.1c3.8-0.4,7.5,0.3,11.2,1.5
				c3.2,1.1,6.4,1,9.7,0.5c1.9-0.3,3.7-0.3,5.6-0.4c3.6,0,7.1-0.1,10.7-0.4c5.2-0.4,10.4-1,15.6-1.6c0.1,0,0.3,0,0.4,0
				c2.3,0,4.7-0.3,7-0.4c1.2,0,2.6,0.1,3.8,0.1c1,0,1.9,0.1,2.7,0c3-0.8,6-0.8,8.9,0.5c1.2,0.5,2.6,0,3.7-0.8c0.7-0.5,1.8-0.7,2.7-1
				c0.7-0.1,1.5,0,2.2,0c0.7,0,1.1,0,1.4-1c0.3-0.8,0.5-1.6,0.8-2.3c3.4-0.5,7-1.1,10.4-1.6c3.6-0.5,7-1.2,10.6-2.1
				c4.9-1,8,2.3,12.9,1.5c2.6-0.4,8.6-0.1,11.2-0.1c1.2,0,5.3-0.8,5.5-2.1c4.7-0.5,9.2,0.7,13.7,1.6c2.2,0.4,4.4,0.3,6.6,0.1
				c1.9,0,3.8-0.3,5.8-0.4c2.7-0.1,5.5-0.1,8.2-0.3c2.3-0.1,4.5-0.7,6.9-0.8c1.8-0.1,3.6-0.3,5.3-0.3c2.7-0.1,5.5-0.3,8.4-0.3
				c3.4,0,7,0.1,10.4,0.1c3.8-0.1,7.8-0.3,11.7-0.5c3.2-0.3,6.4-0.7,9.6-1c3.3-0.3,6.6-0.8,9.9-0.8c2.1,0,4.3,0.5,6.3,0.8
				c0.7,0.1,1.2,0.1,1.9,0c1.6-0.1,3.3-0.3,5.5-0.4c0.1-0.3,0.1-0.5,0.3-1c0.8,0,2.2-0.3,4-0.5c4.1,1.4,8.1,2.7,12.1,4.3
				c2.2,0.8,5.2-0.8,5.8-0.5c0.1-0.8,41.1,2.3,41.1,3.8c0,0.4,0,0.5,0.7,0.7c2.5,0.1,4.9,0.7,7.3,0.8c1.6,0.1,3.4-0.1,5.1-0.1
				c1.5,0,2.9,0,4.4,0.3c1.9,0.3,3.8,0.8,5.9,1.2c2.7,0.5,5.5,0.5,8.2,0.3c3.2-0.4,6.4-0.5,9.6,0c1.8,0.3,3.7,0.4,5.5,0.1
				c3.8-0.4,7.5,0.3,11.2,1.5c3.2,1.1,6.4,1,9.7,0.5c2.5-0.3,4.8-0.3,7.3-0.5c2.7-0.3,5.5-0.7,8.2-1c1.5-0.1,3.2-0.1,4.7-0.4
				c2.1-0.3,4.1-0.7,6.2-0.7c1.9-0.1,4,0.1,5.9,0.1c2.3,0,4.7-0.3,7-0.4c1.2,0,2.6,0.1,3.8,0.1c1,0,1.9,0.1,2.7,0
				c3-0.8,6-0.8,8.9,0.5c1.2,0.5,2.6,0,3.7-0.8c0.7-0.5,1.8-0.7,2.7-1c0.7-0.1,1.5,0,2.2,0c0.7,0,1.1,0,1.4-1
				c0.7-2.3,1.8-4.5,2.5-6.9c1-3.6,1.8-35.9,2.5-39.5c0.5-3,1-6,1-8.9c0.1-4.3,0-8.4-0.4-12.6c-0.3-3.4-1.1-6.7-1.6-10.2
				c-0.3-1.9-0.5-3.7-0.7-5.6c-0.4-3.6-1-12.9-1.2-16.5c-0.1-2.2,0-4.3,0-6.4c0-0.5,0-1.2-0.4-1.8c-0.3,0.8-0.5,1.6-1,2.3
				c-0.3,0.4-1,0.8-1.4,1.1c-0.3-0.5-0.8-1-0.8-1.5c-0.1-1.1,0-2.3-0.1-3.4c-0.3-4-0.7-8.1-1.1-12.1c-0.4-3.3-1-6.7-1.6-10
				c-0.7-3.6-1.6-7.1-2.3-10.7c-0.8-3.8-2.9-7.1-4.8-10.4c-1-1.6-2.1-3-2.9-4.7c-0.7-1.4-1.1-2.9-1.2-4.4c-0.1-2.6-1.2-4.9-2.2-7.3
				c-0.4-1.2-1-2.3-1.5-3.6c-0.1,0-0.3,0-0.3,0.1c-0.3,3-0.7,6.2-1,9.2c-0.3,3.4-0.8,7-1,10.4c-0.1,1.9,0.3,4,0.5,5.9
				c0.1,1.8,0.4,3.6,0.5,5.3c0.1,0.8,0.3,1.6,0.3,2.5c0,0.4-0.1,0.8-0.3,1.1c-0.4-0.1-1.1-0.1-1.4-0.4c-0.5-0.5-1.1-1.1-1.4-1.8
				c-1-1.8-1.6-3.7-2.6-5.3c-1.2-2.2-2.3-4.5-4.5-6.2c-1.2,4.5-2.5,9.1-3.7,14c-0.7-0.5-1.2-0.7-1.4-1.1c-1-2.1-1.6-4.1-2.6-6.2
				c-0.7-1.6-1.8-3.2-2.5-4.8c-1-2.7-1.8-5.6-2.6-8.4c-0.5-1.8-0.8-3.7-1.2-5.6c0-0.3-0.1-0.5-0.3-0.8c-0.1,1.5-0.3,3.2-0.4,4.7
				c-0.3,2.2-0.5,4.3-1.1,6.4c-1.1,5.2-2.5,10.3-3.3,15.5c-0.5,3.3-0.4,6.6-0.8,10c-0.4,3.4,0.8,6.7,1.2,10c0.3,2.1,0.3,4.3,0.4,6.3
				c0,0.3-0.1,0.4-0.3,0.7c-1.8-0.1-1.8-1.8-2.3-2.7c-1.6-2.9-3-5.9-4.5-8.9c-1.5-3-3-5.9-4.7-8.8c-0.1-0.4-0.4-0.8-0.7-1.4
				c-0.5,1.8-1.1,3.2-1.5,4.7c-0.5,1.8-1.4,3.6-1.6,5.5c-0.4,1.9-1.2,3.8-0.8,6c0.3,1.9-0.1,3.8-0.4,5.8c-0.1,1-1.5,1.2-2.2,0.4
				c-0.7-1-1.2-2.1-1.9-3.2c-0.1-0.1-0.3-0.4-0.4-0.7c-1.2,1.9-2.3,3.7-3.4,5.5c-1.4,2.5-3,4.9-3.8,7.5c-0.8,2.9-1,5.9-1.4,8.9
				c-0.1,0.5-0.4,1-0.7,1.5c-0.5-0.3-1.2-0.5-1.5-1c-1.5-2.9-3-5.9-4.3-8.9c-1.5-3.3-3-6.6-4.1-10c-1-2.7-1.4-5.6-2.1-8.4
				c-0.1-0.5-0.3-1.2-0.5-1.9c-0.3,0.8-0.5,1.8-0.7,2.6c-0.3,1-0.3,1.9-0.5,2.9c-0.1,0.4-0.5,0.8-1,1.2c-0.4-0.4-1.1-0.7-1.2-1.1
				c-1-2.3-1.6,1.1-2.6-1.1c-1-2.1-2.1-4.1-3-6c-0.7-1.4-1.2-2.7-1.9-4c-1.9-3.8-2.7-8.1-5.2-11.7c-1.8-2.5-2.9-5.3-4.4-8
				c-1.1-1.9-2.6-3.7-3.8-5.5c-0.1,0-0.1,0-0.3,0.1c0.1,2.3,0.4,4.7,0.3,7c0,3-0.3,6-0.4,8.9c0,2.6,0,5.2,0.1,7.8
				c0,0.8,0.3,1.6-0.4,1.8c-0.5,0.1-1.5-0.4-1.8-1c-1.2-2.5-2.6-5.1-3.6-7.7c-1-3-1.5-6.2-2.3-9.2c-0.5-2.2-1.2-4.4-1.9-6.6
				c-1.1-3.2-2.1-6.3-3.3-9.5c-0.8-2.1-1.8-4.1-2.9-6c-1.8-3.3-3.8-6.6-5.8-9.9c-0.1-0.3-0.5-0.5-1-1.1c0.1,2.3,0.5,4.3,0.4,6.3
				c-0.1,2.5-0.4,4.9-0.7,7.5c-0.4,3.3-0.8,6.6-1.1,10c-0.3,4.3-0.7,8.6-0.7,12.9c0,5.2-0.4,10.6,0.5,15.8c0.4,2.1,0.4,4.1,0.5,6.2
				c-1.4,0.5-2.6,0-3.3-1.2c-1.4-2.3-2.9-4.5-4.1-6.9c-1.4-2.6-2.6-5.5-4-8.2c-0.5-1.1-1.4-2.2-1.9-3.4c-0.8-1.6-1.6-3.3-2.5-5.1
				c-1-2.1-1.9-4.3-3-6.7c0.1,1.4,0.3,2.5,0.3,3.6c0,1.5,0,3-0.1,4.5c-0.4,4-0.8,8-1.2,11.9c-0.4,3.7-0.7,7.5-1,11.2
				c0,0.3-0.3,1-0.4,1c-0.4,0-1-0.1-1.2-0.4c-0.7-1.1-1.5-2.1-2.1-3.3c-0.7-1.5-1.5-2.9-2.1-4.4c-0.7-2.3-1-4.8-1.6-7.1
				c-0.3-1.1-0.7-2.3-1.4-3.3c-1.1-1.6-2.3-3.2-3.6-4.8c-0.1,0-0.3,0-0.4,0c0,0.7-0.1,1.4-0.1,2.1c0,0.8,0,1.5-1,1.8
				c-1.1,0.1-1.6-0.4-1.9-1.4c-0.5-2.2-1-4.4-1.6-6.6c-0.7-2.7-1.5-5.5-2.3-8.2c-0.5-1.8-1.2-3.6-1.9-5.5c-0.4-1.2-0.7-2.3-1-3.6
				c0-0.1-0.1-0.3-0.3-0.5c-0.3,2.1-0.5,4-1,5.9c-0.1,0.4-0.4,0.8-0.7,1s-1-0.1-1.2-0.4c-1-1.2-1.9-2.6-2.7-4
				c-0.7-1.1-1.2-2.3-1.5-3.6c-1.1-3.8-2.1-7.8-3-11.7c-0.5-2.5-1.1-4.8-1.8-7.3c-0.1-0.4-0.3-0.7-0.5-1.1c-0.1,0-0.3,0-0.3,0.1
				c0.1,1.2,0.1,2.5,0.3,3.8c0.1,1.6,0.3,3.3,0.3,4.9c0.1,3.2,0.3,6.3,0.1,9.5c0,3.7-0.1,7.5-0.3,11.2c-0.3,3.7-0.7,7.3-1.2,11
				c-0.4,2.6-1,5.2-1.4,7.8c-0.1,0.5-0.1,1.1-0.3,1.8c-0.3-0.3-0.7-0.5-1-0.7c-0.4-0.3-0.8-0.5-1.2-0.8s-0.7-0.4-1.2-0.7
				c0.1-1.1-0.8-1.5-1.9-2.1c0.3,0,0.5-0.1,1-0.1c0.1-0.1,0.1-0.3,0.3-0.3c-0.1,0-0.4,0-0.5-0.1c-2.7-2.7-5.9-5.1-8-8.5
				c-1.4-2.5-3-4.8-4.7-7.1c-1.1-1.6-2.6-3-4.1-4.8c0,2.1,0.1,3.7,0,5.3c-0.1,2.5-0.5,4.9-0.7,7.3c-0.1,1.5-0.1,3.2,0,4.7
				c0.1,2.9-1,5.5-1.4,8.2c-0.3,1.8,0,3.7,0,5.8c-0.5,0.7-1.1,0.3-1.8-0.1c-4-3.3-8-6.6-11.9-9.9c-3.2-2.6-5.3-5.9-6.9-9.6
				c-0.4-0.8-0.8-1.6-1.2-2.5c-1.5-2.7-3.2-5.5-4.7-8.2c-0.1,0-0.3,0.1-0.4,0.1c0,3.6,0.1,7.1,0,10.7c0,2.5-0.3,4.8-0.5,7.3
				c0,0.4-0.7,1-1.1,1.2c-0.1,0.1-0.8-0.4-1-0.8c-1-1.8-1.9-3.4-3-5.6c-0.3,2.5-0.4,4.5-0.5,6.4c-0.4,3-0.8,6-1.4,9.1
				c-0.5,4-0.8,7.8-0.5,11.8c0.1,2.3,0.1,4.7,0.4,7c0.1,1.4,0.3,2.7,0.5,4.3c-1.2,0.5-1.8,0.3-2.1-1c-1-3.2-1.9-6.3-2.9-9.5
				c-1.2-4.1-2.3-8.2-3.7-12.2c-0.7-2.2-1.8-4.4-2.6-6.6c-1-2.3-1.9-4.7-2.6-7c-1-2.7-2.6-5.1-4.5-7.1c-1.8-1.9-3.7-3.7-5.6-5.5
				c-0.3-0.3-0.5-0.4-1.1-0.7c0.5,2.2,1.2,4.1,1.6,6c0.4,1.5,0.7,3.2,1,4.7c0.3,1.9,0.7,3.7,0.8,5.6c0.3,2.3,0.3,4.5,0.4,6.9
				c0,0.3,0.1,0.7,0,1c0,0.4-0.1,1-0.4,1.1c-0.3,0.1-1,0.1-1.2-0.1c-0.8-0.7-1.4-1.5-2.2-2.2c-2.6-2.5-5.5-4.7-8-7.1
				c-1.6-1.6-3.2-3.4-4.7-5.2c-0.1-0.1-0.3-0.3-0.4-0.4c0,1.9-0.1,4,0,5.8c0.1,1.8,0.5,3.4,0.8,5.2c0.4,2.9,0.8,5.9,1.1,8.8
				c0.1,0.8-0.1,2.1-0.5,2.2c-1,0.5-1.6-0.5-1.9-1.2c-1.4-3-3.8-5.3-5.6-8c-1.6-2.6-3.6-4.9-5.5-7.3c-0.3-1.1-0.5-2.2-0.8-3.4
				c-0.3-1.1-0.3-2.3-0.3-3.4c-0.3,0-0.4,0-0.7,0c-0.3,1.2-0.4,2.6-0.7,3.8c-0.3-0.3-0.4-0.5-0.7-0.8c-2.5-3.2-4.7-6.4-6.7-9.9
				c-1.6-2.7-2.7-5.6-4.1-8.4c-0.8-1.5-1.9-3-2.5-4.7c-0.8-2.9-1.4-6-2.1-8.9c0-0.3-0.1-0.5-0.3-0.8c-0.1,0-0.3,0-0.3,0
				c0.1,2.7,0.3,5.5,0.5,8.4c0.3,2.6,0.4,5.3,0.8,8c0.1,1.4,0.4,2.7,0.8,4c0.8,3,1.8,6,2.6,9.1c0.8,3.4,1.5,7,2.3,10.4
				c0.5,1.9,0.8,4,1.1,5.9c-2.3-4.5-4.5-9.1-6.9-13.4c-1.5-2.9-3.3-5.5-4.8-8.2c-1.5-2.9-3-5.6-3.4-9.1c-0.3-2.3-1.4-4.7-1.9-7
				c-0.5-2.2-1.1-4.3-1.6-6.4c-0.3-1-0.7-1.9-1-3c-0.1,0-0.3,0-0.4,0c-1,5.2-2.1,10.6-3.2,15.9c-4,0.5-4.8-3-7-5.6
				c-1,1.9-2.1,3.6-2.7,5.5c-1.8,4.5-3.4,9.1-4.9,13.6c-0.8,2.7-1.6,5.6-1.9,8.5c-0.7,4.5-1,9.2-1.4,13.7c-0.3,4.3-0.4,8.6-0.7,13
				c-0.1,1.1-0.4,2.2-0.7,3.3c-0.1-1-0.1-1.9-0.3-2.9c-0.4-3.3-1-6.7-1.6-10c-0.7-3.6-1.6-7.1-2.3-10.7c-0.8-3.8-2.9-7.1-4.8-10.4
				c-1-1.6-2.1-3-2.9-4.7c-0.7-1.4-1.1-2.9-1.2-4.4c-0.1-2.6-1.2-4.9-2.2-7.3c-0.4-1.2-1-2.3-1.5-3.6c-0.1,0-0.3,0-0.3,0.1
				c-0.3,3-0.7,6.2-1,9.2c-0.3,3.4-0.8,7-1,10.4c-0.1,1.9,0.3,4,0.5,5.9c0.1,1.8,0.4,3.6,0.5,5.3c0.1,0.8,0.3,1.6,0.3,2.5
				c0,0.4-0.1,0.8-0.3,1.1c-0.1,0-0.4-0.1-0.7-0.1c-0.5-1-1.1-1.8-1.8-2.7c-0.4-0.5-0.8-1.2-1.4-2.1c0,0.1,0,0.4,0,0.5
				c-0.5-1.1-1-2.2-1.6-3.2c-1.2-2.2-2.3-4.5-4.5-6.2c-1.2,4.5-2.5,9.1-3.7,14c-0.7-0.5-1.2-0.7-1.4-1.1c-1-2.1-1.6-4.1-2.6-6.2
				c-0.7-1.6-1.8-3.2-2.5-4.8c-1-2.7-1.8-5.6-2.6-8.4c-0.5-1.8-0.8-3.7-1.2-5.6c0-0.3-0.1-0.5-0.3-0.8c-0.1,1.5-0.3,3.2-0.4,4.7
				c-0.3,2.2-0.5,4.3-1.1,6.4c-1.1,5.2-2.5,10.3-3.3,15.5c-1.6-1.6-3.2-3.3-4.7-5.1c-3.2-3.3-5.5-7.4-8.4-11
				c-2.2-2.7-4.8-5.1-7.4-7.8c0,2.7,0,5.2,0,7.5c0,0.5,0.1,1.1,0.1,1.6c0.3,5.2,0.5,10.4,0.8,15.6c0,1.6-0.3,3.3-0.3,5.1
				c0,0.4,0.1,0.7,0,1.1c-0.1,0.8,0,1.9-0.4,2.2c-0.5,0.3-1.8,0.1-2.3-0.3c-3.2-2.2-6.2-4.5-9.3-6.9c-2.1-1.5-4.1-3.2-5.9-4.5
				c-0.8,3-1.5,5.9-2.2,8.9c-0.3,1.6-0.1,3.3-0.4,4.8c-0.4,2.7-1,5.3-1.4,8.1c0-0.3-0.1-0.4-0.1-0.7c-0.1-0.5-0.3-1.2-0.5-1.9
				c-0.3,0.8-0.5,1.8-0.7,2.6c-0.3,1-0.3,1.9-0.5,2.9c-0.1,0.4-0.5,0.8-1,1.2c-0.4-0.4-1.1-0.7-1.2-1.1c-1-2.3-1.8-4.7-2.7-6.9
				c-1-2.1-2.1-4.1-3-6c-0.7-1.4-1.2-2.7-1.9-4c-1.9-3.8-2.7-8.1-5.2-11.7c-1.8-2.5-2.9-5.3-4.4-8c-1.1-1.9-2.6-3.7-3.8-5.5
				c-0.1,0-0.1,0-0.3,0.1c0.1,2.3,0.4,4.7,0.3,7c0,3-0.3,6-0.4,8.9c0,2.6,0,5.2,0.1,7.8c0,0.8,0.3,1.6-0.4,1.8
				c-0.5,0.1-1.5-0.4-1.8-1c-1.2-2.5-2.6-5.1-3.6-7.7c-1-3-1.5-6.2-2.3-9.2c-0.5-2.2-1.2-4.4-1.9-6.6c-1.1-3.2-2.1-6.3-3.3-9.5
				c-0.8-2.1-1.8-4.1-2.9-6c-1.8-3.3-3.8-6.6-5.8-9.9c-0.1-0.3-0.5-0.5-1-1.1c0.1,2.3,0.5,4.3,0.4,6.3c-0.1,2.5-0.4,4.9-0.7,7.5
				c-0.4,3.3-0.8,6.6-1.1,10c-0.3,4.3-0.7,8.6-0.7,12.9c0,5.2-0.4,10.6,0.5,15.8c0.4,2.1,0.4,4.1,0.5,6.2c-1.4,0.5-2.6,0-3.3-1.2
				c-1.4-2.3-2.9-4.5-4.1-6.9c-1.4-2.6-2.6-5.5-4-8.2c-0.5-1.1-1.4-2.2-1.9-3.4c-0.8-1.6-1.6-3.3-2.5-5.1c-1-2.1-1.9-4.3-3-6.7
				c0.1,1.4,0.3,2.5,0.3,3.6c0,1.5,0,3-0.1,4.5c-0.4,4-0.8,8-1.2,11.9c-0.4,3.7-0.7,7.5-1,11.2c0,0.3-0.3,1-0.4,1
				c-0.4,0-1-0.1-1.2-0.4c-0.7-1.1-1.5-2.1-2.1-3.3c-0.7-1.5-1.5-2.9-2.1-4.4c-0.7-2.3-1-4.8-1.6-7.1c-0.3-1.1-0.7-2.3-1.4-3.3
				c-1.1-1.6-2.3-3.2-3.6-4.8c-0.1,0-0.3,0-0.4,0c0,0.7-0.1,1.4-0.1,2.1c0,0.8,0,1.5-1,1.8c-1.1,0.1-1.6-0.4-1.9-1.4
				c-0.5-2.2-1-4.4-1.6-6.6c-0.7-2.7-1.5-5.5-2.3-8.2c-0.5-1.8-1.2-3.6-1.9-5.5c-0.4-1.2-0.7-2.3-1-3.6c0-0.1-0.1-0.3-0.3-0.5
				c-0.3,2.1-0.5,4-1,5.9c-0.1,0.4-0.4,0.8-0.7,1c-0.3,0.1-1-0.1-1.2-0.4c-1-1.2-1.9-2.6-2.7-4c-0.7-1.1-1.2-2.3-1.5-3.6
				c-1.1-3.8-2.1-7.8-3-11.7c-0.5-2.5-1.1-4.8-1.8-7.3c-0.1-0.4-0.3-0.7-0.5-1.1c-0.1,0-0.3,0-0.3,0.1c0.1,1.2,0.1,2.5,0.3,3.8
				c0.1,1.6,0.3,3.3,0.3,4.9c0.1,3.2,0.3,6.3,0.1,9.5c0,3.7-0.1,7.5-0.3,11.2c-0.3,3.7-0.7,7.3-1.2,11c-0.4,2.6-1,5.2-1.4,7.8
				c-0.5,3.6-1.1,7-1.5,10.6c0,0.1,0,0.1,0,0.3c-0.4-0.8-1.2-1.5-1.9-2.2c-0.3-0.4-0.7-0.7-1.1-1c-0.3-0.3-0.7-0.4-1.2-0.8
				c0.3-1.1-0.5-1.6-1.6-2.3c0.3,0,0.5,0,1,0c0.1-0.1,0.1-0.1,0.3-0.3c-0.1,0-0.4-0.1-0.5-0.1c-2.3-3.2-5.2-5.9-6.7-9.6
				c-1.1-2.6-2.3-5.2-3.6-7.7c0.4-1.5-0.8-3.2-2.2-5.1c-0.3,2.1-0.4,3.7-0.7,5.2c-0.5,2.5-1.2,4.8-1.6,7.1c-0.3,1.5-0.5,3.2-0.7,4.7
				c-0.3,2.9-1.6,5.3-2.5,8c-0.5,1.8-0.5,3.7-0.8,5.6c-0.7,0.5-1.2,0.1-1.6-0.4c-3.6-3.8-7-7.5-10.6-11.4c-2.7-3-4.5-6.6-5.5-10.4
				c-0.3-1-0.5-1.8-1-2.6c-1.2-2.9-2.3-5.9-3.6-8.8c-0.1,0-0.3,0-0.4,0.1c-0.4,3.6-0.8,7.1-1.4,10.7c-0.4,2.3-1,4.8-1.5,7.1
				c-0.1,0.4-0.8,0.8-1.4,1c-0.1,0-0.7-0.5-0.8-1c-0.7-1.8-1.4-3.7-2.2-5.9c-0.5,2.3-1,4.4-1.5,6.3c-0.8,2.9-1.6,5.9-2.5,8.8
				c-1.1,3.8-1.8,7.7-2.1,11.7c-0.1,2.3-0.4,4.7-0.5,7c-0.1,1.4,0,2.7,0,4.3c-1.2,0.4-1.8,0-1.9-1.2c-0.5-3.3-1.1-6.4-1.6-9.7
				c-0.7-4.3-1.2-8.4-2.1-12.6c-0.4-2.3-1.2-4.5-1.8-6.9c-0.5-2.5-1.2-4.8-1.6-7.3c-0.5-2.9-1.9-5.3-3.6-7.7
				c-1.5-2.2-3.2-4.1-4.8-6.3c-0.3-0.3-0.5-0.4-1-0.8c0.3,2.2,0.7,4.3,0.8,6.3c0.1,1.5,0.3,3.2,0.3,4.8c0,1.9,0.1,3.8,0.1,5.8
				c-0.1,2.3-0.3,4.5-0.5,6.9c0,0.3,0,0.7-0.1,1c-0.1,0.4-0.3,1-0.5,1.1c-0.3,0.1-1,0-1.2-0.3c-0.7-0.8-1.1-1.8-1.8-2.5
				c-2.3-2.7-4.8-5.3-7-8.2c-1.5-1.8-2.6-3.8-3.8-5.8c-0.1-0.1-0.3-0.3-0.4-0.4c-0.3,1.9-0.5,3.8-0.7,5.8c-0.1,1.8,0,3.4,0,5.2
				c0,3,0,5.9,0,8.8c0,0.8-0.4,1.9-0.8,2.2c-1,0.4-1.5-0.7-1.8-1.5c-1-3.2-3-5.8-4.5-8.6c-2.1-4.3-4.7-8.1-7.1-12.1
				c-2.1-3.4-3.7-7-5.3-10.7c-1.2-2.9-1.9-5.9-3-8.9c-0.5-1.6-1.5-3.3-1.8-4.9c-0.5-3-0.5-6.2-0.8-9.2c0-0.3-0.1-0.5-0.1-0.8
				c-0.1,0-0.3,0-0.3,0c-0.3,2.7-0.4,5.5-0.5,8.4c-0.1,2.6-0.3,5.3-0.3,8c0,1.4,0,2.7,0.3,4.1c0.4,3.2,1,6.2,1.4,9.3
				c0.4,3.6,0.5,7.1,1,10.7c0.5,4.1,0.3,8.2-0.1,12.3c-0.1,1.9-0.3,3.8-0.5,5.8c-0.1,0.5-0.5,1.2-1,1.2c-0.5,0-1.5-0.3-1.8-0.7
				c-1-2.1-1.6-4.1-2.5-6.2c-1-2.2-1.5-4.7-3.6-6.4c-0.1,0.5-0.4,1-0.5,1.5c-0.7,4.4-1.5,8.8-1.9,13.2c-0.3,2.1,0,4.3,0,6.4
				c0,2.2,0,4.4-0.3,6.6c-0.4,3.7,0.1,7.4,0.5,11.1c0.3,2.2,0.3,4.3,0.5,6.4c0.4,2.9,0.3,6,2.1,8.6c0.1,0.3,0.1,0.8-0.1,1
				c-0.1,0.3-0.7,0.4-1,0.3c-0.5-0.3-1.2-0.8-1.6-1.2c-1.1-1.1-2.1-2.3-3.2-3.4C-91.6,537.1-91.8,537.1-92.2,536.9z"/>
			<g>
				<path fill="#F2383E" d="M835.6,570.1v0.5c0.5-0.3,1-0.4,1.5-0.5c1-0.4,1.9-0.8,2.1-1.1c0.8-2.6,1.4-5.8-0.7-9.5
					C836,562.3,835.9,565.6,835.6,570.1z"/>
				<path fill="#F2383E" d="M1012.8,581.4c2.1,0.7,4.1,1.4,6.2,1.4c1,0,1.9-0.1,2.7-0.4v-23.9l-9.6,1.8l-1.1,20.6
					C1011.7,580.9,1012.3,581.1,1012.8,581.4z"/>
				<path fill="#F2383E" d="M860.3,574.2c-2.6,2.2-3.8,4.1-2.9,6.7c0.8,2.2,2.9,2.7,4.4,2.7c0.1,0,0.4,0,0.7,0
					c1.6-0.1,2.6-1.2,2.9-3.4C865.8,577,863.6,575.6,860.3,574.2z"/>
				<path fill="#F2383E" d="M691.4,570.7l3.4-0.4v-9.6c-0.5,0.7-0.8,1.4-1.1,2.1c-0.5,1.8-1.1,3.7-1.8,5.8L691.4,570.7z"/>
				<path fill="#F2383E" d="M670.5,555.3c-0.3-2.7-1.9-3.2-5.1-3.8h-0.3l-1.4,9.7C669.8,559.3,670.7,558,670.5,555.3z"/>
				<path fill="#F2383E" d="M1209.4,573.1l-1.8,1.9C1208.8,574.9,1209.1,574.6,1209.4,573.1z"/>
				<path fill="#F2383E" d="M1162.9,566.5c1.2-0.1,2.1-0.3,2.3-0.7c0.4-0.5,0.1-2.1-0.4-4.8L1162.9,566.5z"/>
				<path fill="#F2383E" d="M1187.6,561.2c-0.4,1.4-0.7,2.9-0.8,4.5c0,0.4-0.1,1-0.1,1.4c3.3-0.3,4-2.1,4.1-4.8
					c0-0.5-0.4-1.5-0.7-1.8C1188.8,560.5,1187.6,560.9,1187.6,561.2z"/>
				<path fill="#F2383E" d="M1283.4,537.2c-1.1,1.1-2.1,2.3-3.2,3.4c-0.4,0.5-1.1,1-1.6,1.2c-0.3,0.1-0.8,0-1-0.3
					c-0.1-0.3-0.3-0.8-0.1-1c1.8-2.6,1.6-5.6,2.1-8.6c0.3-2.2,0.3-4.3,0.5-6.4c0.4-3.7,1.1-7.4,0.5-11.1c-0.3-2.2-0.3-4.4-0.3-6.6
					c0-2.2,0.3-4.3,0-6.4c-0.5-4.4-1.2-8.8-1.9-13.2c-0.1-0.4-0.3-1-0.5-1.5c-2.1,1.9-2.6,4.3-3.6,6.4c-0.8,2.1-1.5,4.3-2.5,6.2
					c-0.1,0.4-1.1,0.7-1.8,0.7c-0.4,0-0.8-0.8-1-1.2c-0.3-1.9-0.4-3.8-0.5-5.8c-0.4-4.1-0.7-8.2-0.1-12.3c0.4-3.6,0.5-7.1,1-10.7
					c0.4-3.2,1-6.3,1.4-9.3c0.1-1.4,0.3-2.7,0.3-4.1c0-2.6-0.1-5.3-0.3-8c-0.1-2.7-0.4-5.5-0.5-8.4c-0.1,0-0.3,0-0.3,0
					c0,0.3-0.1,0.5-0.1,0.8c-0.3,3-0.4,6.2-0.8,9.2c-0.3,1.6-1.2,3.3-1.8,4.9c-1,3-1.8,6-3,8.9c-1.5,3.7-3.3,7.3-5.3,10.7
					c-2.3,4-5.1,7.8-7.1,12.1c-1.4,2.9-3.6,5.5-4.5,8.6c-0.3,0.8-0.8,1.9-1.8,1.5c-0.5-0.1-0.8-1.4-0.8-2.2c-0.1-2.9,0-5.9,0-8.8
					c0-1.8,0.1-3.4,0-5.2c-0.1-1.9-0.4-3.8-0.7-5.8c-0.1,0.1-0.3,0.3-0.4,0.4c-1.2,1.9-2.5,4-3.8,5.8c-2.2,2.7-4.7,5.5-7,8.2
					c-0.7,0.8-1.1,1.8-1.8,2.5c-0.3,0.3-0.8,0.4-1.2,0.3c-0.3-0.1-0.4-0.7-0.5-1.1c-0.1-0.3,0-0.7-0.1-1c-0.1-2.3-0.4-4.5-0.5-6.9
					c0-1.9,0-3.8,0.1-5.8c0-1.6,0.1-3.2,0.3-4.8c0.3-2.1,0.5-4,0.8-6.3c-0.4,0.4-0.8,0.5-1,0.8c-1.6,2.1-3.3,4.1-4.8,6.3
					c-1.6,2.3-3,4.8-3.6,7.7c-0.5,2.5-1.1,4.8-1.6,7.3c-0.5,2.3-1.4,4.5-1.8,6.9c-0.8,4.3-1.4,8.4-2.1,12.6
					c-0.5,3.3-1.1,6.4-1.6,9.7c-0.1,1.2-0.7,1.6-1.9,1.2c0-1.4,0-2.9,0-4.3c-0.1-2.3-0.4-4.7-0.5-7c-0.3-4-1-7.8-2.1-11.7
					c-0.8-2.9-1.8-5.9-2.5-8.8c-0.5-1.9-1-4-1.5-6.3c-0.8,2.2-1.5,4.1-2.2,5.9c-0.1,0.4-0.7,1.1-0.8,1c-0.5-0.1-1.2-0.5-1.4-1
					c-0.5-2.3-1.1-4.7-1.5-7.1c-0.5-3.6-1-7.1-1.4-10.7c-0.1,0-0.3,0-0.4-0.1c-1.2,2.9-2.3,5.9-3.6,8.8c-0.4,0.8-0.7,1.8-1,2.6
					c-1,4-2.6,7.4-5.5,10.4c-3.6,3.7-7,7.5-10.6,11.4c-0.5,0.5-1.1,1-1.6,0.4c-0.3-1.9-0.3-3.8-0.8-5.6c-0.8-2.6-2.2-5.2-2.5-8
					c-0.1-1.5-0.3-3.2-0.7-4.7c-0.5-2.5-1.2-4.8-1.6-7.1c-0.3-1.6-0.4-3.3-0.7-5.2c-1.4,1.9-2.6,3.6-3.4,5.3
					c-1.4,2.5-2.5,5.1-3.6,7.7c-1.5,3.7-4.4,6.4-6.7,9.6c-0.1,0.1-0.3,0.1-0.5,0.1c0.1,0.1,0.1,0.1,0.3,0.3c0.3,0,0.5,0,1,0
					c-1.1,0.7-1.9,1.2-1.6,2.3c-0.5,0.4-0.8,0.5-1.2,0.8c-0.4,0.3-0.7,0.5-1.1,1c-0.7,0.7-1.5,1.4-1.9,2.2c0-0.1,0-0.1,0-0.3
					c-0.4-3.6-1-7-1.5-10.6c-0.4-2.6-1-5.2-1.4-7.8c-0.5-3.7-1-7.3-1.2-11s-0.3-7.5-0.3-11.2c0-3.2,0.1-6.3,0.1-9.5
					c0-1.6,0.1-3.3,0.3-4.9c0.1-1.2,0.1-2.5,0.3-3.8c-0.1,0-0.3,0-0.3-0.1c-0.1,0.4-0.4,0.7-0.5,1.1c-0.5,2.5-1.1,4.8-1.8,7.3
					c-1,3.8-1.9,7.8-3,11.7c-0.4,1.2-1,2.5-1.5,3.6c-0.8,1.4-1.8,2.6-2.7,4c-0.3,0.3-0.8,0.4-1.2,0.4c-0.3-0.1-0.7-0.5-0.7-1
					c-0.4-1.9-0.7-3.8-1-5.9c-0.1,0.3-0.3,0.4-0.3,0.5c-0.3,1.2-0.5,2.5-1,3.6c-0.5,1.8-1.4,3.6-1.9,5.5c-0.8,2.7-1.6,5.5-2.3,8.2
					c-0.5,2.2-1.1,4.4-1.6,6.6c-0.3,1-0.8,1.6-1.9,1.4c-1-0.1-1-1-1-1.8c0-0.7-0.1-1.4-0.1-2.1c-0.1,0-0.3,0-0.4,0
					c-1.2,1.6-2.5,3.2-3.6,4.8c-0.7,1-1.1,2.1-1.4,3.3c-0.5,2.3-1,4.8-1.6,7.1c-0.4,1.5-1.2,3-2.1,4.4c-0.5,1.1-1.2,2.2-2.1,3.3
					c-0.3,0.3-0.8,0.4-1.2,0.4c-0.1,0-0.3-0.5-0.4-1c-0.3-3.7-0.5-7.5-1-11.2c-0.4-4-0.8-8-1.2-11.9c-0.1-1.5-0.1-3-0.1-4.5
					c0-1.1,0.1-2.2,0.3-3.6c-1.1,2.5-1.9,4.5-3,6.7c-0.8,1.6-1.6,3.4-2.5,5.1c-0.5,1.1-1.4,2.2-1.9,3.4c-1.4,2.7-2.5,5.5-4,8.2
					c-1.2,2.3-2.7,4.5-4.1,6.9c-0.7,1.2-1.9,1.8-3.3,1.2c0.1-2.1,0.3-4.1,0.5-6.2c1-5.2,0.5-10.6,0.5-15.8c0-4.3-0.3-8.6-0.7-12.9
					c-0.3-3.3-0.8-6.6-1.1-10c-0.3-2.5-0.7-4.9-0.7-7.5c0-2.1,0.3-4,0.4-6.3c-0.4,0.4-0.7,0.7-1,1.1c-1.9,3.3-3.8,6.6-5.8,9.9
					c-1.1,1.9-2.1,4-2.9,6c-1.2,3.2-2.2,6.3-3.3,9.5c-0.7,2.2-1.4,4.4-1.9,6.6c-0.8,3-1.4,6.2-2.3,9.2c-1,2.6-2.2,5.2-3.6,7.7
					c-0.3,0.5-1.2,1.1-1.8,1c-0.8-0.1-0.5-1-0.4-1.8c0.1-2.6,0.1-5.2,0.1-7.8c0-3-0.4-6-0.4-8.9c0-2.3,0.1-4.7,0.3-7
					c-0.1,0-0.1,0-0.3-0.1c-1.2,1.8-2.7,3.6-3.8,5.5c-1.5,2.6-2.7,5.5-4.4,8c-2.5,3.6-3.3,7.8-5.2,11.7c-0.7,1.4-1.2,2.7-1.9,4
					c-1,2.1-2.2,4-3,6c-1,2.3-1.8,4.7-2.7,6.9c-0.1,0.4-0.8,0.7-1.2,1.1c-0.3-0.4-0.8-0.8-1-1.2c-0.3-1-0.3-1.9-0.5-2.9
					c-0.1-0.8-0.4-1.8-0.7-2.6c-0.3,0.7-0.4,1.4-0.5,1.9c0,0.3-0.1,0.4-0.1,0.7c-0.5-2.6-1-5.3-1.4-8.1c-0.3-1.6-0.1-3.3-0.4-4.8
					c-0.5-2.9-1.4-5.9-2.2-8.9c-1.8,1.4-3.8,2.9-5.9,4.5c-3.2,2.3-6.2,4.7-9.3,6.9c-0.5,0.4-1.8,0.5-2.3,0.3
					c-0.4-0.3-0.3-1.4-0.4-2.2c0-0.3,0.1-0.7,0-1.1c-0.1-1.6-0.4-3.3-0.3-5.1c0.1-5.2,0.5-10.4,0.8-15.6c0-0.5,0.1-1.1,0.1-1.6
					c0-2.3,0-4.8,0-7.5c-2.7,2.7-5.2,5.2-7.4,7.8c-2.9,3.6-5.3,7.5-8.4,11c-1.5,1.6-3.2,3.4-4.7,5.1c-1-5.2-2.2-10.3-3.3-15.5
					c-0.4-2.1-0.7-4.3-1.1-6.4c-0.3-1.5-0.3-3.2-0.4-4.7c-0.3,0.3-0.3,0.5-0.3,0.8c-0.4,1.9-0.8,3.7-1.2,5.6
					c-0.8,2.9-1.6,5.6-2.6,8.4c-0.5,1.6-1.6,3.2-2.5,4.8c-1,2.1-1.6,4.1-2.6,6.2c-0.1,0.4-0.7,0.5-1.4,1.1c-1.2-4.8-2.5-9.3-3.7-14
					c-2.2,1.6-3.3,4-4.5,6.2c-0.5,1-1.1,2.1-1.6,3.2c0-0.1,0-0.4,0-0.5c-0.5,1-1,1.5-1.4,2.1c-0.5,0.8-1.1,1.8-1.8,2.7
					c-0.3,0-0.4,0-0.7,0.1c-0.1-0.4-0.3-0.8-0.3-1.1c0-0.8,0.1-1.6,0.3-2.5c0.1-1.8,0.4-3.6,0.5-5.3c0.1-1.9,0.5-4,0.5-5.9
					c-0.1-3.4-0.5-7-1-10.4c-0.3-3-0.7-6.2-1-9.2c-0.1,0-0.3,0-0.3-0.1c-0.5,1.2-1,2.3-1.5,3.6c-0.8,2.3-1.9,4.7-2.2,7.3
					c-0.1,1.5-0.5,3-1.2,4.4c-0.8,1.6-1.9,3.2-2.9,4.7c-1.9,3.3-4,6.6-4.8,10.4c-0.7,3.6-1.6,7.1-2.3,10.7c-0.7,3.3-1.2,6.7-1.6,10
					c-0.1,1-0.1,1.9-0.3,2.9c-0.3-1.1-0.5-2.2-0.7-3.3c-0.4-4.3-0.4-8.6-0.7-13c-0.4-4.7-0.7-9.2-1.4-13.7c-0.4-2.9-1.1-5.8-1.9-8.5
					c-1.5-4.5-3.2-9.1-4.9-13.6c-0.7-1.8-1.8-3.6-2.7-5.5c-2.1,2.5-2.9,6.2-7,5.6c-1.1-5.5-2.1-10.7-3.2-15.9c-0.1,0-0.3,0-0.4,0
					c-0.3,1-0.7,1.9-1,3c-0.5,2.2-1.1,4.3-1.6,6.4c-0.7,2.3-1.6,4.5-1.9,7c-0.4,3.3-2.1,6.2-3.4,9.1c-1.5,2.9-3.3,5.5-4.8,8.2
					c-2.3,4.5-4.5,8.9-6.9,13.4c0.3-1.9,0.5-4,1.1-5.9c0.8-3.4,1.5-7,2.3-10.4c0.8-3,1.8-6,2.6-9.1c0.4-1.4,0.5-2.6,0.8-4
					c0.3-2.6,0.5-5.3,0.8-8c0.3-2.7,0.3-5.5,0.5-8.4c-0.1,0-0.3,0-0.3,0c-0.1,0.3-0.3,0.5-0.3,0.8c-0.7,3-1.2,6-2.1,8.9
					c-0.5,1.6-1.6,3.2-2.5,4.7c-1.4,2.7-2.6,5.8-4.1,8.4c-2.1,3.4-4.3,6.9-6.7,9.9c-0.3,0.3-0.4,0.5-0.7,0.8
					c-0.3-1.2-0.4-2.6-0.7-3.8c-0.3,0-0.4,0-0.7,0c-0.1,1.1-0.1,2.3-0.3,3.4c-0.3,1.1-0.5,2.2-0.8,3.4c-1.9,2.3-3.8,4.7-5.5,7.3
					c-1.8,2.7-4.3,4.9-5.6,8c-0.4,0.8-1.1,1.8-1.9,1.2c-0.4-0.3-0.5-1.5-0.5-2.2c0.3-2.9,0.7-5.9,1.1-8.8c0.3-1.8,0.7-3.4,0.8-5.2
					c0.1-1.9,0-3.8,0-5.8c-0.1,0.1-0.3,0.3-0.4,0.4c-1.5,1.8-3,3.6-4.7,5.2c-2.6,2.5-5.3,4.8-8,7.1c-0.8,0.7-1.4,1.5-2.2,2.2
					c-0.3,0.3-1,0.3-1.2,0.1c-0.3-0.1-0.3-0.7-0.4-1.1c0-0.3,0-0.7,0-1c0.1-2.3,0.1-4.5,0.4-6.9c0.1-1.9,0.5-3.8,0.8-5.6
					c0.3-1.5,0.5-3.2,1-4.7c0.5-1.9,1.1-3.8,1.6-6c-0.5,0.3-0.8,0.4-1.1,0.7c-1.9,1.8-3.8,3.7-5.6,5.5c-1.9,2.1-3.6,4.4-4.5,7.1
					c-0.8,2.3-1.8,4.7-2.6,7c-0.8,2.2-1.9,4.3-2.6,6.6c-1.4,4-2.5,8.1-3.7,12.2c-1,3.2-1.9,6.3-2.9,9.5c-0.4,1.2-1,1.5-2.1,1
					c0.1-1.4,0.4-2.7,0.5-4.3c0.1-2.3,0.1-4.7,0.4-7c0.3-4,0.1-7.8-0.5-11.8c-0.4-3-1-6-1.4-9.1c-0.3-2.1-0.4-4-0.5-6.4
					c-1.1,2.1-2.1,3.8-3,5.6c-0.3,0.4-0.8,1-1,0.8c-0.4-0.3-1.1-0.7-1.1-1.2c-0.3-2.5-0.5-4.8-0.5-7.3c0-3.6,0-7.1,0-10.7
					c-0.1,0-0.3-0.1-0.4-0.1c-1.5,2.7-3.2,5.5-4.7,8.2c-0.4,0.8-1,1.6-1.2,2.5c-1.5,3.7-3.7,7-6.9,9.6c-4,3.3-8,6.6-11.9,9.9
					c-0.5,0.5-1.2,0.8-1.8,0.1c0-1.9,0.3-3.8,0-5.8c-0.4-2.7-1.5-5.3-1.4-8.2c0.1-1.5,0.1-3.2,0-4.7c-0.1-2.5-0.5-4.9-0.7-7.3
					c-0.1-1.6,0-3.3,0-5.3c-1.5,1.8-3,3.2-4.1,4.8c-1.6,2.3-3.2,4.7-4.7,7.1c-2.1,3.4-5.2,5.8-8,8.5c-0.1,0.1-0.4,0.1-0.5,0.1
					c0.1,0.1,0.1,0.3,0.3,0.3c0.3,0,0.5,0.1,1,0.1c-1.1,0.5-2.1,1-1.9,2.1c-0.5,0.3-1,0.4-1.2,0.7c-0.4,0.3-0.8,0.5-1.2,0.8
					c-0.3,0.3-0.7,0.5-1,0.7c-0.1-0.5-0.1-1.1-0.3-1.8c-0.4-2.6-1-5.2-1.4-7.8c-0.5-3.7-1-7.3-1.2-11c-0.3-3.7-0.3-7.5-0.3-11.2
					c0-3.2,0.1-6.3,0.1-9.5c0-1.6,0.1-3.3,0.3-4.9c0.1-1.2,0.1-2.5,0.3-3.8c-0.1,0-0.3,0-0.3-0.1c-0.1,0.4-0.4,0.7-0.5,1.1
					c-0.5,2.5-1.1,4.8-1.8,7.3c-1,3.8-1.9,7.8-3,11.7c-0.4,1.2-1,2.5-1.5,3.6c-0.8,1.4-1.8,2.6-2.7,4c-0.3,0.3-0.8,0.4-1.2,0.4
					c-0.3-0.1-0.7-0.5-0.7-1c-0.4-1.9-0.7-3.8-1-5.9c-0.1,0.3-0.3,0.4-0.3,0.5c-0.3,1.2-0.5,2.5-1,3.6c-0.5,1.8-1.4,3.6-1.9,5.5
					c-0.8,2.7-1.6,5.5-2.3,8.2c-0.5,2.2-1.1,4.4-1.6,6.6c-0.3,1-0.8,1.6-1.9,1.4c-1-0.1-1-1-1-1.8c0-0.7-0.1-1.4-0.1-2.1
					c-0.1,0-0.3,0-0.4,0c-1.2,1.6-2.5,3.2-3.6,4.8c-0.7,1-1.1,2.1-1.4,3.3c-0.5,2.3-1,4.8-1.6,7.1c-0.4,1.5-1.2,3-2.1,4.4
					c-0.5,1.1-1.2,2.2-2.1,3.3c-0.3,0.3-0.8,0.4-1.2,0.4c-0.1,0-0.3-0.5-0.4-1c-0.3-3.7-0.5-7.5-1-11.2c-0.4-4-0.8-8-1.2-11.9
					c-0.1-1.5-0.1-3-0.1-4.5c0-1.1,0.1-2.2,0.3-3.6c-1.1,2.5-1.9,4.5-3,6.7c-0.8,1.6-1.6,3.4-2.5,5.1c-0.5,1.1-1.4,2.2-1.9,3.4
					c-1.4,2.7-2.5,5.5-4,8.2c-1.2,2.3-2.7,4.5-4.1,6.9c-0.7,1.2-1.9,1.8-3.3,1.2c0.1-2.1,0.3-4.1,0.5-6.2c1-5.2,0.5-10.6,0.5-15.8
					c0-4.3-0.3-8.6-0.7-12.9c-0.3-3.3-0.8-6.6-1.1-10c-0.3-2.5-0.7-4.9-0.7-7.5c0-2.1,0.3-4,0.4-6.3c-0.4,0.4-0.7,0.7-1,1.1
					c-1.9,3.3-3.8,6.6-5.8,9.9c-1.1,1.9-2.1,4-2.9,6c-1.2,3.2-2.2,6.3-3.3,9.5c-0.7,2.2-1.4,4.4-1.9,6.6c-0.8,3-1.4,6.2-2.3,9.2
					c-1,2.6-2.2,5.2-3.6,7.7c-0.3,0.5-1.2,1.1-1.8,1c-0.8-0.1-0.5-1-0.4-1.8c0.1-2.6,0.1-5.2,0.1-7.8c0-3-0.4-6-0.4-8.9
					c0-2.3,0.1-4.7,0.3-7c-0.1,0-0.1,0-0.3-0.1c-1.2,1.8-2.7,3.6-3.8,5.5c-1.5,2.6-2.7,5.5-4.4,8c-2.5,3.6-3.3,7.8-5.2,11.7
					c-0.7,1.4-1.2,2.7-1.9,4c-1,2.1-2.2,4-3,6c-1,2.3-1.8-1.1-2.6,1.1c-0.1,0.4-0.8,0.7-1.2,1.1c-0.3-0.4-0.8-0.8-1-1.2
					c-0.3-1-0.3-1.9-0.5-2.9c-0.1-0.8-0.4-1.8-0.7-2.6c-0.3,0.7-0.4,1.4-0.5,1.9c-0.7,2.7-1.1,5.6-2.1,8.4c-1.1,3.4-2.6,6.7-4.1,10
					c-1.4,3-2.7,6-4.3,8.9c-0.3,0.4-1,0.7-1.5,1c-0.3-0.5-0.7-1-0.7-1.5c-0.4-3-0.5-6-1.4-8.9c-0.8-2.7-2.5-5.1-3.8-7.5
					c-1-1.8-2.2-3.6-3.4-5.5c-0.3,0.4-0.4,0.5-0.4,0.7c-0.5,1.1-1.1,2.2-1.9,3.2c-0.7,0.8-2.1,0.4-2.2-0.4c-0.3-1.9-0.7-3.8-0.4-5.8
					c0.3-2.2-0.4-4-0.8-6c-0.4-1.9-1.1-3.7-1.6-5.5c-0.4-1.5-1-2.9-1.5-4.7c-0.3,0.5-0.5,1-0.7,1.4c-1.5,2.9-3.2,5.9-4.7,8.8
					c-1.5,3-3,5.9-4.5,8.9c-0.5,1.1-0.5,2.6-2.3,2.7c-0.1-0.3-0.3-0.4-0.3-0.7c0.1-2.1,0.1-4.3,0.4-6.3c0.4-3.3,1.6-6.6,1.2-10
					c-0.4-3.3-0.3-6.7-0.8-10c-1-5.2-2.2-10.3-3.3-15.5c-0.4-2.1-0.7-4.3-1.1-6.4c-0.3-1.5-0.3-3.2-0.4-4.7
					c-0.3,0.3-0.3,0.5-0.3,0.8c-0.4,1.9-0.8,3.7-1.2,5.6c-0.8,2.9-1.6,5.6-2.6,8.4c-0.5,1.6-1.6,3.2-2.5,4.8c-1,2.1-1.6,4.1-2.6,6.2
					c-0.1,0.4-0.7,0.5-1.4,1.1c-1.2-4.8-2.5-9.5-3.7-14c-2.2,1.6-3.3,4-4.5,6.2c-1,1.6-1.6,3.6-2.6,5.3c-0.4,0.7-0.8,1.4-1.4,1.8
					c-0.3,0.3-0.8,0.3-1.4,0.4c-0.1-0.4-0.3-0.8-0.3-1.1c0-0.8,0.1-1.6,0.3-2.5c0.1-1.8,0.4-3.6,0.5-5.3c0.1-1.9,0.5-4,0.5-5.9
					c-0.1-3.4-0.5-7-1-10.4c-0.3-3-0.7-6.2-1-9.2c-0.1,0-0.3,0-0.3-0.1c-0.5,1.2-1,2.3-1.5,3.6c-0.8,2.3-1.9,4.7-2.2,7.3
					c-0.1,1.5-0.5,3-1.2,4.4c-0.8,1.6-1.9,3.2-2.9,4.7c-1.9,3.3-4,6.6-4.8,10.4c-0.7,3.6-1.6,7.1-2.3,10.7c-0.7,3.3-1.2,6.7-1.6,10
					c-0.5,4-0.8,8-1.1,12.1c-0.1,1.1,0,2.3-0.1,3.4c0,0.5-0.5,1-0.8,1.5c-0.4-0.4-1.1-0.7-1.4-1.1c-0.4-0.7-0.7-1.6-1-2.3
					c-0.3,0.5-0.4,1.2-0.4,1.8c0,2.2,0.1,4.3,0,6.4c-0.3,3.6-0.8,12.9-1.2,16.5c-0.3,1.9-0.4,3.7-0.7,5.6c-0.5,3.4-1.4,6.7-1.6,10.2
					c-0.4,4.1-0.4,8.4-0.4,12.6c0,3,0.4,6,1,8.9c0.7,3.6,1.4,36.1,2.5,39.5c0.7,2.3,1.8,4.5,2.5,6.9c0.3,1,0.7,1,1.4,1
					c0.7,0,1.5-0.1,2.2,0c1,0.1,2.1,0.4,2.7,1c1.1,0.8,2.5,1.4,3.7,0.8c2.9-1.4,5.9-1.4,8.9-0.5c0.8,0.3,1.8,0,2.7,0
					c1.2,0,2.6-0.1,3.8-0.1c2.3,0,4.7,0.3,7,0.4c1.9,0,4-0.3,5.9-0.1c2.1,0.1,4.1,0.5,6.2,0.7c1.5,0.1,3.2,0.1,4.7,0.4
					c2.7,0.3,5.5,0.7,8.2,1c2.5,0.3,4.8,0.3,7.3,0.5c3.3,0.4,6.6,0.4,9.7-0.5c3.7-1.2,7.4-1.9,11.2-1.5c1.8,0.1,3.7,0.1,5.5-0.1
					c3.3-0.5,6.4-0.5,9.6,0c2.7,0.4,5.5,0.3,8.2-0.3c1.9-0.4,3.8-0.8,5.9-1.2c1.5-0.3,2.9-0.3,4.4-0.3c1.6,0,3.4,0.3,5.1,0.1
					c2.5-0.1,4.9-0.7,7.3-0.8c0.5,0,0.7-0.1,0.7-0.7c0-1.5,41.1-4.5,41.1-3.8c0.4-0.3,3.6,1.4,5.8,0.5c4-1.5,8.1-2.9,12.1-4.3
					c1.9,0.4,3.2,0.5,4,0.5c0.1,0.3,0.1,0.7,0.3,1c2.2,0.1,3.8,0.3,5.5,0.4c0.7,0,1.2,0,1.9,0c2.1-0.3,4.3-0.8,6.3-0.8
					c3.3,0,6.6,0.5,9.9,0.8c3.2,0.3,6.3,0.7,9.6,1c3.8,0.3,7.8,0.4,11.7,0.5c3.4,0.1,7-0.1,10.4-0.1c2.7,0,5.5,0.1,8.4,0.3
					c1.8,0,3.6,0.1,5.3,0.3c2.3,0.3,4.5,0.7,6.9,0.8c2.7,0.1,5.5,0.1,8.2,0.3c1.9,0.1,3.8,0.3,5.8,0.4c2.2,0,4.5,0.3,6.6-0.1
					c4.5-1,9.1-2.1,13.7-1.6c0.1,1.1,4.3,2.1,5.5,2.1c2.6,0,8.6-0.4,11.2,0.1c4.9,0.8,8-2.6,12.9-1.5c3.6,0.7,7,1.5,10.6,2.1
					c3.4,0.5,7,1.1,10.4,1.6c0.3,0.8,0.7,1.5,0.8,2.3c0.3,1,0.7,1,1.4,1s1.5-0.1,2.2,0c1,0.1,2.1,0.4,2.7,1c1.1,0.8,2.5,1.4,3.7,0.8
					c2.9-1.4,5.9-1.4,8.9-0.5c0.8,0.3,1.8,0,2.7,0c1.2,0,2.6-0.1,3.8-0.1c2.3,0,4.7,0.3,7,0.4c0.1,0,0.3,0,0.4,0
					c5.2,0.7,10.4,1.2,15.6,1.6c3.6,0.3,7.1,0.4,10.7,0.4c1.9,0.1,3.7,0.3,5.6,0.4c3.3,0.4,6.6,0.4,9.7-0.5
					c3.7-1.2,7.4-1.9,11.2-1.5c1.8,0.1,3.7,0.1,5.5-0.1c3.3-0.5,6.4-0.5,9.6,0c2.7,0.4,5.5,0.3,8.2-0.3c1.9-0.4,3.8-0.8,5.9-1.2
					c1.5-0.3,2.9-0.3,4.4-0.3c1.6,0,3.4,0.3,5.1,0.1c2.5-0.1,4.9-0.7,7.3-0.8c0.5,0,0.7-0.1,0.7-0.7c0-1.5,18.7-2.3,18.9-1.1
					c0.4,2.2,22.2,2.3,22.2,3.2c0.4-0.3,0.5-0.5,0.8-0.7c1.4-1.8,2.7-3.6,4.9-4.4h0.1c0,0.1,0,0.4,0,0.4c2.3,4.9,2.3,0.3,19.3,1.1
					c0.5,1.2,12.1,2.2,12.5,2.9c2.2-0.1,3.8-0.3,5.5-0.4c0.7,0,1.2-0.1,1.9-0.3c2.1-0.5,4.1-1.4,6.2-1.6c3.3-0.4,6.6-0.4,9.9-0.5
					c3.2-0.1,6.4-0.1,9.6-0.4c3.8-0.3,7.8-0.5,11.7-1c3.4-0.4,6.9-1.1,10.3-1.5c2.7-0.4,5.5-0.5,8.2-0.8c1.8-0.1,3.6-0.4,5.3-0.4
					c2.3-0.1,4.7,0.1,7,0c2.7-0.1,5.5-0.5,8.2-0.8c1.9-0.1,3.8-0.3,5.8-0.4c2.2-0.3,4.5-0.3,6.6-1.1c4.4-1.5,8.6-3.3,13.3-3.4
					c1.5,0,2.3-29.6,2.3-31.1c0-0.3,0-0.4,0-0.7c0-4.4,1.5-8.4,3.6-12.1c1-1.9,2.1-3.8,2.6-5.8c0.7-2.5,0.8-5.1,1.2-7.5
					c0.4-2.6,1-5.2,1.4-7.8c0.5-3.4,1.1-6.9,1.8-10.3c0.1-0.8,0.4-1.6,0.7-2.6C1283.7,537.1,1283.6,537.1,1283.4,537.2z
					 M595.1,623.6c1-0.3,1.8-0.5,2.6-0.8C597.8,624,596.7,624.4,595.1,623.6z M952.6,625.9c0.8-0.3,1.4-0.4,2.1-0.7
					c0.1,0,0.3,0,0.5,0.1C954.9,626.3,954,626.6,952.6,625.9z"/>
			</g>
			<rect y="598.4" fill="#F2383E" width="1920.3" height="88.5"/>
		</g>
	</g>
</g>
</svg>
