<?xml version="1.0" encoding="utf-8"?>
<!-- Generator: Adobe Illustrator 18.0.0, SVG Export Plug-In . SVG Version: 6.00 Build 0)  -->
<!DOCTYPE svg PUBLIC "-//W3C//DTD SVG 1.1//EN" "http://www.w3.org/Graphics/SVG/1.1/DTD/svg11.dtd">
<svg version="1.1" id="Layer_1" xmlns="http://www.w3.org/2000/svg" xmlns:xlink="http://www.w3.org/1999/xlink" x="0px" y="0px"
	 viewBox="0 0 290.8 281.6" enable-background="new 0 0 290.8 281.6" xml:space="preserve">
<g>
	<path fill="#FF4338" d="M120.2,73V58h3v6.1h7.4V58h3v15h-3v-6.4h-7.4V73H120.2z"/>
	<path fill="#FF4338" d="M146.7,73.3c-4.4,0-7.6-3.2-7.6-7.8s3.2-7.8,7.6-7.8c4.4,0,7.6,3.2,7.6,7.8S151.1,73.3,146.7,73.3z
		 M146.7,60.3c-2.8,0-4.5,2-4.5,5.2c0,3.2,1.8,5.2,4.5,5.2c2.8,0,4.5-2,4.5-5.2C151.3,62.4,149.5,60.3,146.7,60.3z"/>
	<path fill="#FF4338" d="M163.4,73V60.5h-5.3V58h13.7v2.5h-5.4V73H163.4z"/>
</g>
<g>
	<path fill="#FF4338" d="M92.4,166.5h-7.1v-15H92c3.8,0,5.4,1.6,5.4,4.1c0,1.7-1.1,2.9-2.8,3.2c1.8,0.3,3.2,1.5,3.2,3.7
		C97.9,165,95.9,166.5,92.4,166.5z M88.2,157.7h3.6c1.8,0,2.6-0.8,2.6-1.9c0-1.1-0.8-1.9-2.6-1.9h-3.6V157.7z M88.2,160v4.1h3.8
		c1.9,0,2.8-0.8,2.8-2c0-1.3-0.9-2.1-2.8-2.1H88.2z"/>
	<path fill="#FF4338" d="M111.4,151.4l6.1,15h-3.2l-1.5-3.7h-6.4l-1.5,3.7h-3l6.1-15H111.4z M107.4,160.5h4.6l-2.3-5.6h-0.1
		L107.4,160.5z"/>
	<path fill="#FF4338" d="M124.2,161c0.1,2.3,1.8,3.4,3.9,3.4c1.9,0,3.1-0.7,3.1-2c0-1.1-0.9-1.6-2.5-1.9l-2.9-0.5
		c-2.3-0.4-4-1.7-4-4.2c0-2.8,2.2-4.6,5.7-4.6c3.9,0,6.2,2,6.2,5.4l-2.7,0.1c-0.1-2.1-1.4-3.1-3.5-3.1c-1.8,0-2.8,0.8-2.8,2.1
		c0,1.1,0.8,1.5,2.1,1.7l2.8,0.5c3,0.5,4.3,2,4.3,4.4c0,3-2.6,4.6-5.9,4.6c-3.9,0-6.7-2-6.7-5.6L124.2,161z"/>
	<path fill="#FF4338" d="M143.5,166.5v-12.6h-5.3v-2.5h13.7v2.5h-5.4v12.6H143.5z"/>
	<path fill="#FF4338" d="M163.7,151.4l6.1,15h-3.2l-1.5-3.7h-6.4l-1.5,3.7h-3l6.1-15H163.7z M159.6,160.5h4.6l-2.3-5.6h-0.1
		L159.6,160.5z"/>
	<path fill="#FF4338" d="M184.5,166.5c-0.3-0.4-0.5-1.4-0.6-3.1c-0.1-1.7-0.9-2.5-2.6-2.5h-3.5v5.6h-2.9v-15h6.8
		c3.8,0,5.7,1.8,5.7,4.6c0,2.3-1.5,3.6-3.3,3.8c1.7,0.3,2.6,1.3,2.8,3.1c0.2,2.2,0.3,3,0.8,3.5H184.5z M181.2,158.6
		c2.2,0,3.2-0.7,3.2-2.3c0-1.5-1-2.4-3.2-2.4h-3.5v4.7H181.2z"/>
	<path fill="#FF4338" d="M193.1,151.4h5.7c4.8,0,7.9,2.8,7.9,7.5s-3,7.5-7.9,7.5h-5.7V151.4z M198.6,164.1c3.2,0,5-1.9,5-5.2
		c0-3.2-1.8-5.1-5-5.1h-2.5v10.3H198.6z"/>
</g>
<g>
	<defs>
		<path id="SVGID_1_" d="M153.8,29.2c-0.1,0.1-0.2,0.3-0.4,0.2c0,0,0,0,0,0c-0.2,0.1-0.4,0.3-0.6,0.4c-0.3,0.2-0.6,0.5-1,0.7
			c0,0-0.1,0-0.1,0c-0.3,0-0.6,0.2-0.8,0.5c-0.1,0.1-0.1,0.1-0.2,0.2c0-0.1-0.1-0.1-0.1-0.2c-0.5,0.2-1,0.7-1.6,0.8
			c0,0,0.1-0.1,0.1-0.1c0,0,0,0,0-0.1c-0.1,0.1-0.3,0.1-0.4,0.2c-0.1,0.1-0.3,0.2-0.4,0.3c-0.1,0.1-0.2,0.1-0.3,0.1
			c-0.1,0-0.2,0-0.2,0.1c-0.1,0.1-0.2,0.2-0.3,0.3c-0.2,0.2-0.3,0.5-0.3,0.7c0,0.4,0,0.8,0,1.2c0,0.1,0,0.1,0,0.2
			c0,0.1,0,0.3,0.1,0.4c0,0.1-0.1,2.9-0.1,3.1c-0.1,0.1-0.3,0.1-0.4,0.1c-0.2,0-0.4,0-0.7,0c-0.3,0-0.7-0.1-1-0.1
			c-0.2,0-0.5,0-0.7-0.2c0-0.3,0-3.4,0.1-3.7c0-0.1,0-0.2,0-0.3c0-0.4,0-0.9,0-1.3c0-0.1,0-0.2-0.1-0.3c-0.2-0.5-0.6-0.8-1-1
			c-0.6-0.3-1.2-0.6-1.9-0.8c0,0.1,0.1,0.1,0.1,0.2c0,0,0,0.1-0.1,0.1c0,0-0.1,0-0.1,0c-0.3-0.2-0.6-0.4-0.9-0.6
			c-0.2-0.2-0.4-0.3-0.6-0.5c-0.3-0.2-0.5-0.5-0.8-0.7c0,0-0.1-0.1-0.2-0.1c-0.1,0-0.1-0.1-0.2-0.1c-0.1,0-0.1-0.1-0.1-0.1
			c-0.1-0.2-0.2-0.2-0.3-0.1c-0.1-0.2-0.2-0.4-0.3-0.6c-0.1-0.1-0.1-0.2-0.2-0.3c0-0.1-0.1-0.1-0.1-0.2c-0.2-0.1-0.2-0.1-0.2-0.3
			c0,0-0.1,0-0.1,0c0,0,0,0,0,0c0-0.3,0-0.4-0.3-0.6c0,0,0,0-0.1-0.1c0-0.1-0.1-0.1-0.1-0.2c0,0-0.1-0.1-0.1-0.1
			c0.1-0.2-0.2-0.3-0.2-0.6c0.2-0.1,0.2-0.4,0.2-0.6c0-0.2,0-0.4,0.1-0.5c0,0,0,0.1,0,0.2c0,0,0.1,0,0.1,0c0.1-0.1,0-0.1-0.1-0.3
			c0.2-0.2,0.1-0.5,0.2-0.8c0,0.1,0,0.1,0.1,0.2c0-0.1,0-0.1,0-0.2c0-0.1,0-0.2,0.1-0.2c0,0,0-0.1,0-0.2c0.2-0.1,0.3-0.3,0.3-0.5
			c0,0,0-0.1,0-0.1c0.2-0.2,0.1-0.5,0.3-0.7c0.2-0.6,0.4-1.1,0.5-1.7c0-0.2,0.1-0.4,0.1-0.6c0-0.1,0-0.1,0-0.2c0-0.2,0-0.4,0.1-0.6
			c0.1-0.2,0.2-0.5,0.1-0.7c0-0.2,0-0.2,0.1-0.3c-0.1-0.2-0.3-0.5-0.4-0.7c0,0-0.1-0.1-0.1-0.1c-0.3,0.1-0.4-0.1-0.5-0.2
			c0,0,0,0-0.1,0c0,0.1,0,0.2,0,0.3c0,0.1,0,0.1-0.2,0.2c0-0.1,0-0.2,0-0.3c0,0.4,0,0.7-0.2,1.1c0,0,0,0-0.1,0c0,0,0-0.1,0-0.1
			c0-0.2,0.1-0.3-0.1-0.5c0,0,0,0,0,0c0.1-0.4-0.1-0.7,0-1.1c0.1-0.2,0-0.4,0-0.6c0-0.1-0.1-0.2-0.1-0.3c0-0.1,0-0.2,0.2-0.3
			c0-0.1,0-0.2,0-0.3c0-0.1,0-0.2,0-0.3c0.1-0.2,0.1-0.3,0-0.5c0-0.1,0-0.2,0.1-0.3c0.4,0.4,0.5,0.9,0.8,1.4
			c0.1-0.1,0.1-0.1,0.2-0.2c0.2,0.3,0.4,0.7,0.6,1c0,0,0,0,0,0c0.1,0.1,0,0.3,0.2,0.4c0.1,0.1,0.1,0.3,0.2,0.4
			c0.1,0.2,0.1,0.5,0.2,0.7c-0.1,0.5,0.2,0.9,0.3,1.4c0,0.1,0,0.1,0,0.2c-0.1,0-0.1,0-0.2,0c0,0,0,0-0.1,0c0,0.3,0.2,0.7,0,1
			c-0.1-0.1-0.1-0.2-0.2-0.3c0,0.3,0,0.6,0,0.8c0,0,0,0.1,0,0.1c-0.3,0.9-0.4,1.7-0.7,2.6c-0.1,0.2-0.1,0.4-0.2,0.6
			c-0.1,0.3-0.1,0.6-0.1,0.9c0,0.1,0,0.2,0,0.4c0,0.1,0,0.2,0,0.4c0.1,0.3,0.2,0.7,0.4,1c0.3,0.4,0.6,0.7,0.9,1.1
			c0.2,0.2,0.3,0.4,0.5,0.5c0.2,0.2,0.4,0.3,0.6,0.5c0.2,0.1,0.4,0.3,0.6,0.4c0.4,0.2,0.8,0.4,1.2,0.6c0.2,0.1,0.4,0.2,0.7,0.2
			c0-0.1,0.1-0.2,0.1-0.3c0,0,0,0,0,0c0,0.1,0,0.2,0.1,0.3c0.1-0.2,0.2-0.3,0.3-0.5c0.2-0.3,0.4-0.5,0.6-0.7c0.1-0.1,0.2-0.2,0.2,0
			c0.3-0.1,0.3-0.4,0.2-0.6c-0.1-0.6-0.1-1.2-0.1-1.9c0-0.2,0-0.4,0-0.6c-0.1-0.5,0-0.9,0-1.4c0-0.1,0-0.2-0.1-0.3c0,0,0-0.1,0-0.2
			c0-0.2,0-0.5,0-0.7c0-0.2,0-0.4,0-0.6c0-0.3,0-0.5,0.1-0.8c0-0.3,0-0.5,0-0.8c0-0.3,0-0.5,0.1-0.8c0-0.2,0-0.4,0-0.7
			c0-0.3,0.1-0.5,0.1-0.8c0-0.1,0-0.1,0-0.2c-0.1,0-0.1,0-0.2,0c0,0,0-0.1,0-0.1c0.1-0.8,0.2-1.6,0.3-2.4c0-0.3,0-0.5-0.2-0.7
			c-0.1,0.1-0.3,0.2-0.4,0.3c-0.2,0.1-0.3,0.2-0.5,0.3c-0.2,0.1-0.3,0.2-0.5,0.3c0.1-0.1,0.1-0.2,0.2-0.4c-0.1,0-0.1,0.1-0.2,0.1
			c0-0.1,0-0.1,0-0.1c0.2-0.4,0.4-0.9,0.6-1.3c0.1-0.1,0.1-0.3,0.2-0.4c0.2-0.2,0.3-0.5,0.4-0.7c0.1-0.3,0.2-0.5,0.3-0.8
			c0.1-0.2,0.3-0.4,0.4-0.6c0,0,0,0,0.1,0c-0.1,0.2-0.2,0.4-0.3,0.7c0,0.1,0,0.1-0.1,0.2c0,0.1-0.1,0.2-0.1,0.2c0,0,0,0,0.1,0
			c0-0.1,0-0.2,0.1-0.3c0.1-0.1,0.1-0.2,0.2-0.3c0.1-0.1,0.1-0.2,0.2-0.3c0.2-0.2,0.2-0.2,0.1-0.4c0-0.2,0.1-0.3,0.1-0.5
			c0,0,0,0,0.1,0c0.1,0.3,0.2,0.5,0.4,0.8c0,0,0,0,0.1,0c-0.1-0.2-0.1-0.3-0.2-0.5c-0.1-0.2,0-0.3,0.1-0.5c0,0.7,0.5,1.2,0.8,1.8
			c0-0.4-0.1-0.7-0.3-1c-0.1-0.3-0.2-0.5-0.4-0.8c0-0.1,0-0.1,0.1-0.2c0.8,1.3,1.5,2.7,2.2,4.1c0,0,0,0.1,0,0.1
			c-0.2-0.1-0.2-0.2-0.3-0.3c-0.1-0.1-0.2-0.2-0.3-0.4c0,0.2,0,0.3,0.1,0.4c0.2,0.2,0.3,0.4,0.5,0.5c0.1,0,0.1,0.2,0,0.3
			c0,0-0.1-0.1-0.1-0.1c-0.2-0.2-0.4-0.3-0.6-0.5c-0.1,0-0.1-0.2-0.2,0c0,0-0.1,0-0.1,0c-0.1,0-0.1-0.1-0.2-0.1c0,0,0,0,0,0
			c0.1,0.2,0.1,0.3,0,0.5c0,0,0,0.1,0,0.1c0.1,0.3,0,0.6-0.1,0.9c0,0.3,0,0.6-0.1,0.9c0,0.2,0,0.5,0,0.7c0,0.2,0,0.4,0,0.6
			c0.1,0,0.2,0,0.3,0c0.1,0.6,0,1.1-0.1,1.6c-0.1,0.8-0.2,1.5-0.1,2.3c0,0.4,0.1,0.9,0.1,1.3c0,0.1,0,0.1,0,0.1
			c-0.2,0.1-0.1,0.2-0.1,0.4c0,0.1,0,0.2-0.2,0.2c0,0.4,0,0.8,0.1,1.2c0,0.3,0.1,0.7,0.1,1c0,0,0,0.1,0,0.1c0,0.1,0,0.2,0,0.3
			c0,0.1,0,0.3,0,0.4c0,0.3,0,0.6,0.2,0.9c0.2,0.3,0.3,0.5,0.6,0.7c0.1,0.1,0.2,0.2,0.3,0.3c0.2-0.1,0.4,0,0.6,0.1
			c0.1,0.1,0.2,0,0.3,0c0.1-0.1,0.3-0.1,0.4-0.1c-0.1,0-0.1,0.1-0.2,0.1c0,0,0,0,0,0c0.1,0,0.1-0.1,0.2-0.1c0,0,0,0-0.1,0
			c0,0,0-0.1,0-0.1c0.2-0.1,0.4-0.3,0.6-0.4c0.2-0.1,0.4-0.2,0.6-0.2c0.1,0,0.3,0,0.4-0.2c0,0,0.1-0.1,0.1-0.1
			c0.4-0.2,0.7-0.5,1.1-0.7c0.3-0.2,0.5-0.4,0.6-0.7c0.1-0.2,0.2-0.5,0.3-0.7c0.1-0.3,0.1-0.6,0.1-1c0-0.3,0-0.6-0.1-0.9
			c0-0.3,0-0.6-0.1-0.9c0-0.1-0.1-0.2-0.2-0.2c-0.1-0.1-0.1-0.2-0.2-0.3c0-0.3-0.1-0.7-0.1-1c0-0.4-0.2-0.9-0.2-1.3
			c-0.1,0-0.1,0.1-0.2,0.1c0-0.1-0.1-0.1-0.1-0.2c0-0.3,0.1-0.6,0.1-0.9c0-0.1,0-0.2,0-0.3c0-0.1,0-0.3-0.1-0.4c0.1,0,0.1,0,0.1,0
			c0-0.2-0.1-0.3-0.1-0.5c0,0-0.1,0.1-0.2,0.2c0-0.1,0-0.1,0-0.1c0.2-0.4,0.4-0.8,0.6-1.2c0.1-0.2,0.1-0.5,0.2-0.7
			c0-0.1,0.1-0.3,0.2-0.4c0.3-0.5,0.6-1,0.8-1.5c0-0.1,0.1-0.1,0.1-0.2c0.2-0.1,0.4-0.3,0.5-0.5c0.1-0.2,0.3-0.3,0.5-0.6
			c0,0.3,0.1,0.5,0.1,0.7c0,0.2-0.1,0.5,0,0.7c0.1,0.2,0,0.4,0,0.6c0,0.7,0,1.4,0.1,2c0,0.1,0,0.2-0.1,0.2c0-0.1,0-0.2-0.1-0.2
			c0,0-0.1,0-0.1-0.1c0.1-0.1,0.1-0.1,0-0.2c0,0.1,0,0.2,0,0.2c0,0,0,0,0,0.1c-0.1,0-0.1,0-0.2,0c-0.1,0.2,0.1,0.3,0.1,0.3
			c0.1,0.1,0.1,0.2,0.2,0.3c0,0-0.1,0.1-0.2,0.1c-0.1-0.1-0.1-0.2-0.3-0.3c-0.1-0.1-0.2-0.2-0.2-0.4c-0.1-0.1-0.1-0.2-0.2-0.3
			c-0.1,0-0.2,0-0.3,0c-0.1,0.3-0.2,0.5-0.1,0.8c0,0.3,0,0.6-0.1,0.9c0,0.1,0,0.1,0,0.2c0.2,0.8,0.3,1.7,0.5,2.5
			c0,0.1,0.1,0.2,0.1,0.3c0.2,0.3,0.3,0.7,0.4,1.1c0.1,0.4,0.2,0.9,0.3,1.3c0.1,0.2,0.1,0.5,0.2,0.7c0,0.2,0.1,0.3,0.2,0.5
			c0,0.1,0.1,0.1-0.1,0.2c0,0,0,0.1,0,0.1c0,0.3,0,0.5,0,0.8c0,0.1,0,0.3-0.1,0.3c0,0,0,0.1-0.1,0.1c-0.1,0.4-0.3,0.8-0.5,1.2
			c-0.1,0.2-0.1,0.3-0.2,0.5c-0.1,0.1-0.2,0.3-0.3,0.4C154,29,153.9,29.1,153.8,29.2c0,0,0-0.1,0-0.1c-0.1,0-0.1,0-0.1,0.1
			c0,0,0,0,0,0.1C153.7,29.2,153.8,29.2,153.8,29.2z M150.7,30.1c0,0-0.1,0-0.1,0C150.6,30.1,150.6,30.1,150.7,30.1
			C150.7,30.1,150.7,30.1,150.7,30.1c0-0.1,0-0.1,0.1-0.2c0,0,0,0-0.1,0C150.7,30,150.7,30,150.7,30.1z M150.7,29.5
			c0.1-0.1,0.1-0.1,0.1-0.3C150.8,29.4,150.8,29.5,150.7,29.5c-0.1,0.1-0.2,0.2-0.2,0.3C150.6,29.8,150.7,29.7,150.7,29.5z
			 M137.1,25.9C137.1,25.9,137.1,25.9,137.1,25.9c-0.1-0.1-0.1-0.1-0.2-0.2c0,0-0.1,0-0.1-0.1c0,0,0-0.1,0-0.1
			c-0.1,0.1-0.1,0.1-0.2,0.2c0.1,0,0.2,0,0.2,0c0,0.1,0.1,0.2,0.1,0.4C137.1,26,137.1,26,137.1,25.9c0,0.1,0,0.3,0,0.4
			C137.2,26.1,137.2,26.1,137.1,25.9z M145.2,30.6c0-0.1,0-0.2,0-0.3c0,0,0,0,0,0C145.2,30.4,145.2,30.5,145.2,30.6
			C145.1,30.6,145.1,30.7,145.2,30.6c-0.1,0.3-0.2,0.6-0.2,0.8c0,0.1,0,0.2,0,0.4c0.1-0.1,0.1-0.2,0.2-0.4
			C145.1,31.1,145.1,30.9,145.2,30.6z M137.4,24.7c0.1,0.1,0.2,0.2,0.3,0.3c0.1-0.3-0.1-0.4-0.1-0.6c-0.1-0.1-0.1-0.1-0.2-0.2
			c0,0.2,0.1,0.3,0.1,0.4C137.4,24.6,137.5,24.7,137.4,24.7C137.3,24.7,137.3,24.7,137.4,24.7c-0.1,0.1-0.2,0.2-0.3,0.2
			c0,0,0.1,0,0.1,0c0.1,0.1,0.2,0.3,0.1,0.4c0-0.1-0.1-0.1-0.1-0.2c0,0.2,0,0.3,0,0.4c0.1,0.2,0.2,0.3,0.2,0.5c0,0,0.1,0,0.1,0.1
			c0-0.1,0-0.1,0.1-0.2c0.1,0,0.1,0.2,0.3,0.1c-0.1-0.2-0.1-0.4-0.2-0.6C137.5,25.2,137.5,24.9,137.4,24.7z M144.9,18.1
			C145,18.1,145,18.1,144.9,18.1c0.1-0.1,0.2-0.2,0.2-0.3c0-0.3,0.1-0.6,0.1-0.9c0-0.2,0-0.5,0-0.7c-0.2,0.3,0,0.6-0.1,1
			C145,17.4,145,17.7,144.9,18.1z M146.7,15.7c0.1-0.2,0.1-0.3,0.2-0.4c0-0.1,0-0.1,0-0.2c-0.1-0.1-0.2-0.2-0.2-0.3
			c-0.1,0-0.2,0-0.3,0c-0.1,0.2,0,0.2,0.1,0.2c0.1,0,0.2,0.1,0.3,0.1C146.7,15.2,146.7,15.3,146.7,15.7z M149.8,29.1
			c0,0.1,0,0.2,0,0.3c0.1,0,0.2,0,0.3,0c0.1,0,0.2,0.1,0.3,0.1c0-0.1,0-0.1,0-0.2c-0.1,0-0.3,0-0.4,0c0.1,0,0.2-0.1,0.3-0.1
			C150.1,28.9,149.9,29.1,149.8,29.1z M150.5,30.8c0.2-0.1,0.2-0.3,0.3-0.4c0.1-0.2,0.1-0.3,0.2-0.5c0.1-0.1,0.1-0.3,0.2-0.4
			c0,0,0,0-0.1,0c-0.1,0.2-0.2,0.4-0.4,0.7C150.7,30.4,150.6,30.6,150.5,30.8z M138.2,26.8c0.3,0.4,0.5,0.8,0.8,1.2
			c0.1-0.1,0-0.2-0.1-0.3c-0.2-0.3-0.5-0.5-0.4-0.9C138.5,26.9,138.4,26.8,138.2,26.8z M138.8,28.6
			C138.8,28.6,138.8,28.5,138.8,28.6c-0.2-0.4-0.5-0.6-0.7-0.9c0,0-0.1,0-0.1-0.1C138.2,28,138.4,28.3,138.8,28.6z M146.3,22.2
			C146.3,22.2,146.3,22.2,146.3,22.2c-0.1,0.5-0.2,0.9-0.1,1.4c0,0,0,0,0.1,0C146.3,23.2,146.3,22.7,146.3,22.2z M149.9,28.9
			c0.3,0.1,0.6-0.1,0.7-0.3C150.4,28.6,150.2,28.7,149.9,28.9z M146.5,15.8c0,0.3,0,0.6,0,1C146.6,16.4,146.6,16.1,146.5,15.8z
			 M138.8,22C138.8,22,138.9,22,138.8,22c0.2-0.4,0.3-0.8,0.3-1.2c0,0-0.1,0-0.1,0C139,21.1,138.9,21.5,138.8,22z M149.6,30.8
			c-0.2,0.1-0.5,0.3-0.6,0.5C149.3,31.3,149.5,31.1,149.6,30.8z M140,28.7c-0.2-0.3-0.3-0.6-0.6-0.8C139.6,28.2,139.8,28.5,140,28.7
			z M146.1,14.6c0.1-0.3,0.2-0.5,0.2-0.9C146.2,13.9,146.1,14.3,146.1,14.6z M150.5,30.4C150.5,30.4,150.4,30.4,150.5,30.4
			c-0.1,0.2-0.1,0.3-0.3,0.5c0,0,0,0.1,0,0.1c0.1,0.1,0.1,0,0.1,0c0.1-0.1,0.1-0.2,0.2-0.3C150.5,30.5,150.5,30.4,150.5,30.4z
			 M146.1,21c-0.1,0.3,0,0.6,0.1,0.7C146.1,21.5,146.3,21.3,146.1,21z M137.9,25.3C137.9,25.3,137.9,25.3,137.9,25.3
			c-0.1,0.1-0.2,0.2-0.1,0.4c0.1,0,0.2,0,0.3-0.1C138,25.5,138,25.4,137.9,25.3z M148.8,29.6C148.8,29.7,148.8,29.7,148.8,29.6
			c0.1,0.3,0.2,0.3,0.5,0.1C149.1,29.7,148.9,29.7,148.8,29.6z M150.4,30.1C150.4,30.1,150.4,30.1,150.4,30.1
			c-0.2,0.1-0.5,0.6-0.5,0.8C150.1,30.6,150.3,30.3,150.4,30.1z M139.1,18.8C139.1,18.8,139.1,18.7,139.1,18.8
			c-0.1,0.4-0.1,0.7-0.2,1.1c0,0,0,0,0,0C139,19.5,139.1,19.1,139.1,18.8z M144,29.8C144,29.8,144,29.8,144,29.8
			c0.2-0.2,0.4-0.5,0.5-0.7c0,0,0,0-0.1,0C144.3,29.3,144.1,29.5,144,29.8z M147.1,13.9c0,0.3,0.1,0.4,0.4,0.5
			C147.3,14.2,147.2,14.1,147.1,13.9z M145.5,18.6C145.5,18.6,145.5,18.6,145.5,18.6c-0.1,0.2-0.1,0.5,0,0.7
			C145.5,19.1,145.5,18.8,145.5,18.6z M138.2,22.4c-0.1,0.2,0.1,0.3,0.2,0.4c0,0,0.1,0,0.1,0C138.6,22.6,138.3,22.6,138.2,22.4z
			 M145,30.6c-0.2,0.4-0.2,0.6-0.2,0.8c0,0,0-0.1,0-0.1C144.9,31,144.9,30.8,145,30.6z M146.6,14.6c-0.1-0.1-0.1-0.3-0.2-0.4
			c-0.1,0.1-0.1,0.2-0.1,0.2C146.4,14.6,146.4,14.6,146.6,14.6z M149.2,30.4c-0.3,0.1-0.5,0.3-0.6,0.5
			C148.9,30.7,149,30.5,149.2,30.4z M145.9,24.1C145.9,24.1,145.9,24.1,145.9,24.1c0-0.2,0-0.5,0-0.7c0,0,0,0-0.1,0
			C145.8,23.6,145.9,23.9,145.9,24.1z M145.6,23.7c0.1-0.2,0.1-0.4,0-0.6C145.5,23.3,145.5,23.5,145.6,23.7z M146.7,34.8
			c0,0.1,0,0.2,0.1,0.2c0,0,0,0,0.1,0c0-0.1,0-0.1,0-0.2C146.9,34.8,146.8,34.8,146.7,34.8z M151.3,30.5c0.1,0.1,0.3,0,0.3-0.1
			c-0.1,0-0.1-0.1-0.2-0.1C151.4,30.4,151.4,30.5,151.3,30.5z M138.1,15.7C138.1,15.7,138.2,15.7,138.1,15.7c0-0.2-0.1-0.4-0.1-0.6
			c0,0,0,0-0.1,0C138,15.3,138.1,15.5,138.1,15.7z M138.2,27.3C138.1,27.3,138.1,27.3,138.2,27.3c0,0.1,0.1,0.3,0.2,0.4
			C138.4,27.4,138.2,27.4,138.2,27.3z M145.4,20.3c0,0.2-0.1,0.4,0,0.6C145.4,20.7,145.4,20.5,145.4,20.3z M145.4,28.4
			C145.4,28.4,145.5,28.4,145.4,28.4c0-0.2,0-0.4-0.1-0.5C145.3,28,145.3,28.2,145.4,28.4z M146.3,15.4c-0.1,0.2-0.1,0.2-0.1,0.5
			C146.3,15.7,146.3,15.6,146.3,15.4z M153.5,27.1c-0.2,0.1-0.2,0.1-0.2,0.3C153.4,27.3,153.5,27.3,153.5,27.1z M147.5,32.3
			c0.1-0.1,0.2-0.1,0.2-0.3C147.5,32,147.5,32,147.5,32.3z M144.2,28.9c0.1-0.1,0.3-0.2,0.3-0.4C144.4,28.6,144.3,28.8,144.2,28.9z
			 M154.9,26.3C154.9,26.3,154.9,26.3,154.9,26.3c0.1-0.1,0.1-0.3,0-0.4c0,0-0.1,0-0.1,0C154.9,26,154.9,26.1,154.9,26.3z
			 M144.4,29.9C144.3,29.9,144.3,29.9,144.4,29.9c-0.1,0.2-0.3,0.3-0.2,0.5C144.2,30.3,144.3,30.1,144.4,29.9z M137.3,26.5
			c0.1,0,0.2,0,0.2-0.2c-0.1,0-0.1,0-0.2,0C137.3,26.4,137.3,26.4,137.3,26.5z M141.9,29.5c0.1,0.1,0.3,0.1,0.4,0.2
			C142.2,29.6,142.2,29.5,141.9,29.5z M145.7,30.8C145.7,30.8,145.6,30.8,145.7,30.8c0,0.2,0,0.3,0,0.5c0,0,0,0,0,0
			C145.7,31.1,145.7,31,145.7,30.8z M144.4,35.3c0.1,0,0.2-0.1,0.2-0.1c0-0.1-0.1-0.2-0.1-0.3C144.5,35.1,144.5,35.2,144.4,35.3z
			 M146,15.8c0-0.2,0-0.3,0.1-0.4c0,0,0,0-0.1,0C146,15.5,146,15.6,146,15.8z M153,16.4C153,16.4,153,16.4,153,16.4
			c-0.1,0.1-0.2,0.2-0.2,0.4c0,0,0,0,0,0C152.9,16.6,153,16.5,153,16.4z M141.5,30.2c0-0.1-0.1-0.1-0.2-0.1
			C141.2,30.2,141.4,30.2,141.5,30.2z M137.9,26.2c0,0.3,0,0.3,0.2,0.3C138.1,26.4,138,26.3,137.9,26.2z M148,31.5
			C148,31.5,148.1,31.5,148,31.5c0.1,0,0.2-0.1,0.2-0.2c0,0,0,0,0,0C148.2,31.4,148.1,31.4,148,31.5z M137.6,26.4c0.1,0,0.2,0,0.2,0
			C137.7,26.3,137.7,26.3,137.6,26.4z M143.7,29.6C143.7,29.6,143.7,29.6,143.7,29.6c-0.1,0.1-0.2,0.1-0.1,0.3
			C143.7,29.8,143.7,29.7,143.7,29.6z M144.4,14C144.4,14,144.4,14,144.4,14c-0.1,0.1-0.2,0.2-0.2,0.3c0,0,0,0,0.1,0
			C144.3,14.3,144.3,14.2,144.4,14z M145.2,21.7C145.2,21.7,145.2,21.7,145.2,21.7c0-0.1,0-0.3,0-0.4c0,0,0,0,0,0
			C145.2,21.4,145.2,21.5,145.2,21.7z M145.6,15.6C145.5,15.6,145.5,15.6,145.6,15.6c0,0.1,0,0.3,0,0.4c0,0,0,0,0,0
			C145.6,15.9,145.6,15.8,145.6,15.6z M145.9,28.8C145.9,28.8,145.8,28.8,145.9,28.8c-0.1,0.1-0.1,0.2-0.1,0.3c0,0,0,0,0,0
			C145.8,29,145.9,28.9,145.9,28.8z M146.6,17.7C146.6,17.7,146.6,17.7,146.6,17.7c0-0.1,0-0.3,0-0.4c0,0,0,0,0,0
			C146.6,17.5,146.6,17.6,146.6,17.7z M153.4,21.4C153.4,21.4,153.5,21.4,153.4,21.4c0.1-0.1,0.1-0.2,0.1-0.3c0,0,0,0-0.1,0
			C153.4,21.2,153.4,21.3,153.4,21.4z M138.2,25.9c-0.1,0-0.2-0.1-0.3-0.1C138.1,25.9,138.1,25.9,138.2,25.9z M143.8,15.5
			C143.8,15.5,143.8,15.5,143.8,15.5c0.1,0,0.2-0.1,0.2-0.3C143.9,15.3,143.8,15.4,143.8,15.5z M154.8,17.1c0-0.1,0-0.2,0-0.3
			C154.7,16.9,154.7,17,154.8,17.1z M149.4,30.1c0.1,0,0.1,0,0.2,0C149.5,30,149.5,30,149.4,30.1z M153.5,26.7
			C153.5,26.7,153.5,26.7,153.5,26.7c-0.1,0-0.1,0.1-0.2,0.2c0,0,0,0,0.1,0C153.5,26.9,153.5,26.8,153.5,26.7z M152,28.9
			C152,28.9,152,28.9,152,28.9c-0.1,0.1-0.2,0.1-0.2,0.2c0,0,0,0,0.1,0C151.9,29.1,152,29,152,28.9z M145.1,24.4
			C145.1,24.4,145.1,24.4,145.1,24.4c0,0.1,0,0.2,0,0.3c0,0,0,0,0,0C145.1,24.6,145.1,24.5,145.1,24.4z M139.3,20.3
			C139.3,20.3,139.3,20.3,139.3,20.3c-0.1,0.1-0.1,0.1-0.1,0.2c0,0,0,0,0,0C139.3,20.4,139.3,20.4,139.3,20.3z M145.7,14.3
			C145.7,14.3,145.6,14.3,145.7,14.3c-0.1,0-0.1,0.1-0.1,0.2c0,0,0,0,0.1,0C145.6,14.4,145.7,14.4,145.7,14.3z M145.7,30
			C145.7,30,145.7,30,145.7,30c0-0.1,0-0.1,0-0.2c0,0,0,0,0,0C145.7,29.9,145.7,29.9,145.7,30z M146,13.7
			C146,13.7,146,13.7,146,13.7c-0.1,0.1-0.1,0.2-0.1,0.2c0,0,0,0,0.1,0C146,13.9,146,13.8,146,13.7z M146,19.1
			C146,19.1,146,19.1,146,19.1c0-0.1,0-0.2,0-0.3c0,0,0,0,0,0C146,18.9,146,19,146,19.1z M147.6,14.6
			C147.7,14.6,147.7,14.6,147.6,14.6c0-0.1-0.1-0.1-0.1-0.1c0,0,0,0,0,0C147.6,14.6,147.6,14.6,147.6,14.6z M154.1,22.1
			C154.1,22.1,154.1,22.1,154.1,22.1c0-0.1,0-0.1,0-0.2c0,0,0,0,0,0C154.1,21.9,154.1,22,154.1,22.1z M146,27C146,27,146,27,146,27
			c0,0.1,0,0.1,0,0.2c0,0,0,0,0.1,0C146.1,27.1,146.1,27.1,146,27z M149.3,31.6C149.3,31.6,149.3,31.6,149.3,31.6c0.1,0,0.1,0,0.1,0
			c0,0,0,0,0,0C149.3,31.5,149.3,31.6,149.3,31.6z M151.7,28.7C151.7,28.7,151.7,28.7,151.7,28.7c0.1,0,0.1-0.1,0.1-0.1c0,0,0,0,0,0
			C151.8,28.6,151.8,28.7,151.7,28.7z M152.6,29.6C152.6,29.6,152.6,29.6,152.6,29.6c-0.1,0-0.1,0.1-0.1,0.1c0,0,0,0,0,0
			C152.6,29.7,152.6,29.6,152.6,29.6z M145.1,35.2C145.1,35.2,145.1,35.2,145.1,35.2c0-0.1,0-0.1-0.1-0.1c0,0,0,0.1,0,0.1
			C145,35.1,145,35.2,145.1,35.2z M140.7,30.1C140.7,30.1,140.7,30,140.7,30.1C140.7,30,140.7,30,140.7,30.1
			c-0.1-0.1-0.1-0.1-0.1-0.1C140.6,30,140.7,30.1,140.7,30.1z M138.7,28C138.7,28,138.7,28,138.7,28c0-0.1,0-0.1-0.1-0.2
			c0,0,0,0-0.1,0C138.6,27.9,138.6,28,138.7,28z M153.6,20.6C153.6,20.5,153.7,20.5,153.6,20.6c0.1-0.1,0.1-0.1,0.1-0.2c0,0,0,0,0,0
			C153.6,20.5,153.6,20.5,153.6,20.6z M145.1,24.1C145.1,24.1,145.1,24.1,145.1,24.1c0,0,0-0.1,0-0.1c0,0,0,0,0,0
			C145.1,24,145.1,24.1,145.1,24.1z M152.7,29.3c0,0.1-0.2,0.1,0,0.2C152.7,29.4,152.7,29.3,152.7,29.3z M150.1,29.7
			C150.1,29.7,150.1,29.7,150.1,29.7c0-0.1-0.1-0.1-0.1-0.1c0,0,0,0,0,0C150,29.7,150.1,29.7,150.1,29.7z M148.4,29.4
			C148.4,29.4,148.4,29.4,148.4,29.4C148.4,29.4,148.3,29.4,148.4,29.4c-0.1-0.1-0.1-0.1-0.1,0C148.3,29.4,148.4,29.4,148.4,29.4z
			 M154.4,27.1C154.4,27.1,154.4,27.1,154.4,27.1C154.4,27.1,154.3,27.1,154.4,27.1c0,0.1,0,0.1,0,0.1c0,0,0,0,0,0
			C154.4,27.1,154.4,27.1,154.4,27.1z M146.7,27.6C146.7,27.6,146.7,27.6,146.7,27.6c0,0.1,0,0.1,0,0.2c0,0,0,0,0,0
			C146.7,27.7,146.7,27.7,146.7,27.6z M137,25.1C137,25.1,137,25.1,137,25.1c-0.1,0-0.1,0.1-0.1,0.1c0,0,0,0,0,0
			C137,25.1,137,25.1,137,25.1z M145.7,29.5C145.7,29.5,145.7,29.5,145.7,29.5c0-0.1,0-0.1,0-0.2c0,0,0,0,0,0
			C145.7,29.4,145.7,29.5,145.7,29.5z"/>
	</defs>
	<use xlink:href="#SVGID_1_"  overflow="visible" fill="#FF4338"/>
	<clipPath id="SVGID_2_">
		<use xlink:href="#SVGID_1_"  overflow="visible"/>
	</clipPath>
</g>
<g>
	<path fill="#FF4338" d="M50.4,128.7c1.4,4.1,5,4.7,8.7,3.7c3.1-0.8,4.8-2.5,4.3-4.3c-0.5-2-2.6-1.8-5.2-1.6l-6.4,0.6
		c-5.7,0.4-10.3-1.6-11.9-7.4c-1.8-6.8,2.4-12.2,10.7-14.4c9.2-2.4,15.3,0.7,17.5,8.1l-8.2,2.3c-1.2-3.4-4.1-4.3-7.5-3.4
		c-3,0.8-4.3,2.4-3.8,4.2c0.4,1.5,1.8,1.8,4,1.6l6.6-0.6c7.3-0.6,11.4,2.2,12.9,7.6c1.9,7.1-3.3,12.2-11.1,14.3
		c-9,2.4-16.6-0.3-18.8-8.3L50.4,128.7z"/>
	<path fill="#FF4338" d="M97.9,131.3l-9.3-23.2l-0.2,0l3.2,24l-8.5,1.1l-4.5-34.1l14.3-1.9l7.9,20.8l0.2,0l2-22.1l13.9-1.8l4.5,34.1
		l-9.2,1.2l-3.2-24l-0.2,0l-3,24.8L97.9,131.3z"/>
	<path fill="#FF4338" d="M147.3,128.5c-10,0-17.9-7.2-17.9-17.8c0-10.6,7.8-17.9,17.8-17.9c10,0,17.9,7.2,17.9,17.8
		C165.1,121.1,157.3,128.4,147.3,128.5z M147.2,100.9c-5.1,0-8.3,3.9-8.3,9.7c0,5.8,3.3,9.7,8.3,9.6c5.1,0,8.3-3.9,8.3-9.7
		C155.5,104.7,152.2,100.9,147.2,100.9z"/>
	<path fill="#FF4338" d="M194.9,131.3l-7.8-14.8l-3.4,2.9l-1.3,10.4l-9.2-1.1l4.3-34.2l9.2,1.2l-1.7,13.8l14-12.3l10.6,1.3l-15,12.9
		l11.4,21.4L194.9,131.3z"/>
	<path fill="#FF4338" d="M242.7,106.1l9.7,2.4l-18,17.6l-3.1,12.7l-8.8-2.2l3.1-12.7L218,99.9l10,2.5l4.5,13.9L242.7,106.1z"/>
</g>
<g>
	<g>
		<path fill="#FF4338" d="M8.4,271.9c0.1,1.4,1.1,2,2.3,2c1.1,0,1.8-0.4,1.8-1.2c0-0.7-0.5-0.9-1.5-1.1l-1.7-0.3
			c-1.4-0.3-2.3-1-2.3-2.5c0-1.7,1.3-2.7,3.4-2.7c2.3,0,3.6,1.2,3.6,3.2l-1.6,0.1c-0.1-1.2-0.8-1.8-2-1.8c-1,0-1.6,0.5-1.6,1.2
			c0,0.6,0.5,0.9,1.3,1l1.6,0.3c1.7,0.3,2.5,1.1,2.5,2.6c0,1.7-1.5,2.7-3.5,2.7c-2.3,0-3.9-1.2-3.9-3.3L8.4,271.9z"/>
		<path fill="#FF4338" d="M19.8,275.1v-7.4h-3.1v-1.5h8v1.5h-3.2v7.4H19.8z"/>
		<path fill="#FF4338" d="M33.6,275.1c-0.2-0.2-0.3-0.8-0.4-1.8c-0.1-1-0.5-1.4-1.5-1.4h-2.1v3.3h-1.7v-8.8h4c2.3,0,3.4,1.1,3.4,2.7
			c0,1.3-0.9,2.1-1.9,2.2c1,0.2,1.5,0.8,1.6,1.8c0.1,1.3,0.2,1.8,0.4,2.1H33.6z M31.6,270.5c1.3,0,1.9-0.4,1.9-1.4
			c0-0.9-0.6-1.4-1.9-1.4h-2v2.8H31.6z"/>
		<path fill="#FF4338" d="M43.5,266.3l3.6,8.8h-1.9l-0.9-2.2h-3.8l-0.9,2.2h-1.8l3.6-8.8H43.5z M41.1,271.6h2.7l-1.3-3.3h-0.1
			L41.1,271.6z"/>
		<path fill="#FF4338" d="M51.8,266.3v8.8H50v-8.8H51.8z"/>
		<path fill="#FF4338" d="M55,270.7c0-2.7,1.9-4.6,4.4-4.6c2.5,0,4,1.4,4.2,3.6l-1.7,0.1c-0.1-1.3-1-2.2-2.5-2.2
			c-1.6,0-2.6,1.2-2.6,3c0,1.9,1.1,3.1,2.8,3.1c1.2,0,2.2-0.7,2.4-1.8h-2.3v-1.3h4v4.5h-1.6v-1.3c-0.4,1-1.5,1.5-2.8,1.5
			C56.8,275.3,55,273.4,55,270.7z"/>
		<path fill="#FF4338" d="M67.2,275.1v-8.8H69v3.6h4.4v-3.6h1.8v8.8h-1.8v-3.8H69v3.8H67.2z"/>
		<path fill="#FF4338" d="M81.4,275.1v-7.4h-3.1v-1.5h8v1.5h-3.2v7.4H81.4z"/>
		<path fill="#FF4338" d="M94.1,275.1v-8.8h6.3v1.5h-4.6v2.4h3.5v1.4h-3.5v3.6H94.1z"/>
		<path fill="#FF4338" d="M109.4,275.1c-0.2-0.2-0.3-0.8-0.4-1.8c-0.1-1-0.5-1.4-1.5-1.4h-2.1v3.3h-1.7v-8.8h4
			c2.3,0,3.4,1.1,3.4,2.7c0,1.3-0.9,2.1-1.9,2.2c1,0.2,1.5,0.8,1.6,1.8c0.1,1.3,0.2,1.8,0.4,2.1H109.4z M107.4,270.5
			c1.3,0,1.9-0.4,1.9-1.4c0-0.9-0.6-1.4-1.9-1.4h-2v2.8H107.4z"/>
		<path fill="#FF4338" d="M118.4,275.3c-2.6,0-4.5-1.9-4.5-4.6c0-2.7,1.9-4.6,4.5-4.6c2.6,0,4.5,1.9,4.5,4.6
			C122.9,273.4,121,275.3,118.4,275.3z M118.4,267.6c-1.6,0-2.7,1.2-2.7,3c0,1.8,1,3,2.7,3s2.7-1.2,2.7-3
			C121.1,268.8,120,267.6,118.4,267.6z"/>
		<path fill="#FF4338" d="M130,275.1l-2.2-6.9h-0.1v6.9h-1.6v-8.8h2.8l1.9,6.4h0l1.8-6.4h2.7v8.8h-1.8v-6.9h-0.1l-2.1,6.9H130z"/>
		<path fill="#FF4338" d="M146.3,275.1v-7.4h-3.1v-1.5h8v1.5h-3.2v7.4H146.3z"/>
		<path fill="#FF4338" d="M154.4,275.1v-8.8h1.8v3.6h4.4v-3.6h1.8v8.8h-1.8v-3.8h-4.4v3.8H154.4z"/>
		<path fill="#FF4338" d="M172.5,275.1h-6.6v-8.8h6.5v1.5h-4.7v2.1h3.7v1.4h-3.7v2.3h4.9V275.1z"/>
		<path fill="#FF4338" d="M180.5,266.3h3.3c2.8,0,4.6,1.7,4.6,4.4c0,2.8-1.8,4.4-4.6,4.4h-3.3V266.3z M183.7,273.7
			c1.9,0,2.9-1.1,2.9-3c0-1.9-1-3-2.9-3h-1.5v6H183.7z"/>
		<path fill="#FF4338" d="M198.3,275.1h-6.6v-8.8h6.5v1.5h-4.7v2.1h3.7v1.4h-3.7v2.3h4.9V275.1z"/>
		<path fill="#FF4338" d="M204.3,275.1l-3.5-8.8h1.8l2.6,6.7h0.1l2.6-6.7h1.8l-3.5,8.8H204.3z"/>
		<path fill="#FF4338" d="M214.4,266.3v8.8h-1.8v-8.8H214.4z"/>
		<path fill="#FF4338" d="M219.8,266.3v7.4h4.7v1.5H218v-8.8H219.8z"/>
		<path fill="#FF4338" d="M226.2,266.3h1.8v1.6c0,1.2-0.5,1.7-1.8,1.8v-0.9c0.6,0,0.8-0.2,0.9-0.8h-0.9V266.3z"/>
		<path fill="#FF4338" d="M232.3,271.9c0.1,1.4,1.1,2,2.3,2c1.1,0,1.8-0.4,1.8-1.2c0-0.7-0.5-0.9-1.5-1.1l-1.7-0.3
			c-1.4-0.3-2.3-1-2.3-2.5c0-1.7,1.3-2.7,3.4-2.7c2.3,0,3.6,1.2,3.6,3.2l-1.6,0.1c-0.1-1.2-0.8-1.8-2-1.8c-1,0-1.6,0.5-1.6,1.2
			c0,0.6,0.5,0.9,1.3,1l1.6,0.3c1.7,0.3,2.5,1.1,2.5,2.6c0,1.7-1.5,2.7-3.5,2.7c-2.3,0-3.9-1.2-3.9-3.3L232.3,271.9z"/>
		<path fill="#FF4338" d="M250.9,266.3l3.6,8.8h-1.9l-0.9-2.2H248l-0.9,2.2h-1.8l3.6-8.8H250.9z M248.5,271.6h2.7l-1.3-3.3h-0.1
			L248.5,271.6z"/>
		<path fill="#FF4338" d="M263.1,275.1c-0.2-0.2-0.3-0.8-0.4-1.8c-0.1-1-0.5-1.4-1.5-1.4h-2.1v3.3h-1.7v-8.8h4
			c2.3,0,3.4,1.1,3.4,2.7c0,1.3-0.9,2.1-1.9,2.2c1,0.2,1.5,0.8,1.6,1.8c0.1,1.3,0.2,1.8,0.4,2.1H263.1z M261.2,270.5
			c1.3,0,1.9-0.4,1.9-1.4c0-0.9-0.6-1.4-1.9-1.4h-2v2.8H261.2z"/>
		<path fill="#FF4338" d="M269.3,271.9c0.1,1.4,1.1,2,2.3,2c1.1,0,1.8-0.4,1.8-1.2c0-0.7-0.5-0.9-1.5-1.1l-1.7-0.3
			c-1.4-0.3-2.3-1-2.3-2.5c0-1.7,1.3-2.7,3.4-2.7c2.3,0,3.6,1.2,3.6,3.2l-1.6,0.1c-0.1-1.2-0.8-1.8-2-1.8c-1,0-1.6,0.5-1.6,1.2
			c0,0.6,0.5,0.9,1.3,1l1.6,0.3c1.7,0.3,2.5,1.1,2.5,2.6c0,1.7-1.5,2.7-3.5,2.7c-2.3,0-3.9-1.2-3.9-3.3L269.3,271.9z"/>
		<path fill="#FF4338" d="M285,275.1h-6.6v-8.8h6.5v1.5h-4.7v2.1h3.7v1.4h-3.7v2.3h4.9V275.1z"/>
	</g>
</g>
<line fill="none" stroke="#FF4338" stroke-miterlimit="10" x1="146" y1="185.4" x2="146" y2="245.8"/>
</svg>
