<?xml version="1.0" encoding="utf-8"?>
<!-- Generator: Adobe Illustrator 18.0.0, SVG Export Plug-In . SVG Version: 6.00 Build 0)  -->
<!DOCTYPE svg PUBLIC "-//W3C//DTD SVG 1.1//EN" "http://www.w3.org/Graphics/SVG/1.1/DTD/svg11.dtd">
<svg version="1.1" id="Layer_1" xmlns="http://www.w3.org/2000/svg" xmlns:xlink="http://www.w3.org/1999/xlink" x="0px" y="0px"
	 viewBox="428.4 30 1067.3 1036" enable-background="new 428.4 30 1067.3 1036" xml:space="preserve">
<g>
	<path fill="#F2383E" d="M863.4,280v-57.5h11.5v23.4h28.4v-23.4h11.5V280h-11.5v-24.5h-28.4V280H863.4z"/>
	<path fill="#F2383E" d="M965,281.1c-16.9,0-29.1-12.3-29.1-29.9s12.3-29.9,29.1-29.9c16.9,0,29.1,12.3,29.1,29.9
		S981.9,281.1,965,281.1z M965,231.3c-10.7,0-17.3,7.7-17.3,19.9s6.9,19.9,17.3,19.9c10.7,0,17.3-7.7,17.3-19.9
		C982.6,239.3,975.7,231.3,965,231.3z"/>
	<path fill="#F2383E" d="M1029,280V232h-20.3v-9.6h52.5v9.6h-20.7V280H1029z"/>
</g>
<g>
	<path fill="#F2383E" d="M756.7,638.6h-27.2V581h25.7c14.6,0,20.7,6.1,20.7,15.7c0,6.5-4.2,11.1-10.7,12.3
		c6.9,1.2,12.3,5.8,12.3,14.2C777.8,632.8,770.2,638.6,756.7,638.6z M740.6,604.8h13.8c6.9,0,10-3.1,10-7.3c0-4.2-3.1-7.3-10-7.3
		h-13.8V604.8z M740.6,613.6v15.7h14.6c7.3,0,10.7-3.1,10.7-7.7c0-5-3.5-8.1-10.7-8.1H740.6z"/>
	<path fill="#F2383E" d="M829.6,580.7l23.4,57.5h-12.3L835,624h-24.5l-5.8,14.2h-11.5l23.4-57.5H829.6z M814.3,615.6h17.6l-8.8-21.5
		h-0.4L814.3,615.6z"/>
	<path fill="#F2383E" d="M878.7,617.5c0.4,8.8,6.9,13,15,13c7.3,0,11.9-2.7,11.9-7.7c0-4.2-3.5-6.1-9.6-7.3l-11.1-1.9
		c-8.8-1.5-15.3-6.5-15.3-16.1c0-10.7,8.4-17.6,21.9-17.6c15,0,23.8,7.7,23.8,20.7l-10.4,0.4c-0.4-8.1-5.4-11.9-13.4-11.9
		c-6.9,0-10.7,3.1-10.7,8.1c0,4.2,3.1,5.8,8.1,6.5l10.7,1.9c11.5,1.9,16.5,7.7,16.5,16.9c0,11.5-10,17.6-22.6,17.6
		c-15,0-25.7-7.7-25.7-21.5L878.7,617.5z"/>
	<path fill="#F2383E" d="M952.7,638.6v-48.3h-20.3v-9.6h52.5v9.6h-20.7v48.3H952.7z"/>
	<path fill="#F2383E" d="M1030.2,580.7l23.4,57.5h-12.3l-5.8-14.2H1011l-5.8,14.2h-11.5l23.4-57.5H1030.2z M1014.5,615.6h17.6
		l-8.8-21.5h-0.4L1014.5,615.6z"/>
	<path fill="#F2383E" d="M1110,638.6c-1.2-1.5-1.9-5.4-2.3-11.9c-0.4-6.5-3.5-9.6-10-9.6h-13.4v21.5h-11.1V581h26.1
		c14.6,0,21.9,6.9,21.9,17.6c0,8.8-5.8,13.8-12.7,14.6c6.5,1.2,10,5,10.7,11.9c0.8,8.4,1.2,11.5,3.1,13.4L1110,638.6L1110,638.6z
		 M1097.3,608.3c8.4,0,12.3-2.7,12.3-8.8c0-5.8-3.8-9.2-12.3-9.2h-13.4v18H1097.3z"/>
	<path fill="#F2383E" d="M1142.9,580.7h21.9c18.4,0,30.3,10.7,30.3,28.8c0,18-11.5,28.8-30.3,28.8h-21.9V580.7z M1164,629.4
		c12.3,0,19.2-7.3,19.2-19.9c0-12.3-6.9-19.6-19.2-19.6h-9.6v39.5H1164z"/>
</g>
<g>
	<g>
		<path id="SVGID_1_" fill="#F2383E" d="M992.2,112c-0.4,0.4-0.8,1.2-1.5,0.8l0,0c-0.8,0.4-1.5,1.2-2.3,1.5
			c-1.2,0.8-2.3,1.9-3.8,2.7h-0.4c-1.2,0-2.3,0.8-3.1,1.9c-0.4,0.4-0.4,0.4-0.8,0.8c0-0.4-0.4-0.4-0.4-0.8c-1.9,0.8-3.8,2.7-6.1,3.1
			l0.4-0.4c0,0,0,0,0-0.4c-0.4,0.4-1.2,0.4-1.5,0.8c-0.4,0.4-1.2,0.8-1.5,1.2c-0.4,0.4-0.8,0.4-1.2,0.4s-0.8,0-0.8,0.4
			c-0.4,0.4-0.8,0.8-1.2,1.2c-0.8,0.8-1.2,1.9-1.2,2.7c0,1.5,0,3.1,0,4.6c0,0.4,0,0.4,0,0.8s0,1.2,0.4,1.5c0,0.4-0.4,11.1-0.4,11.9
			c-0.4,0.4-1.2,0.4-1.5,0.4c-0.8,0-1.5,0-2.7,0s-2.7-0.4-3.8-0.4c-0.8,0-1.9,0-2.7-0.8c0-1.2,0-13,0.4-14.2c0-0.4,0-0.8,0-1.2
			c0-1.5,0-3.5,0-5c0-0.4,0-0.8-0.4-1.2c-0.8-1.9-2.3-3.1-3.8-3.8c-2.3-1.2-4.6-2.3-7.3-3.1c0,0.4,0.4,0.4,0.4,0.8
			c0,0,0,0.4-0.4,0.4h-0.4c-1.2-0.8-2.3-1.5-3.5-2.3c-0.8-0.8-1.5-1.2-2.3-1.9c-1.2-0.8-1.9-1.9-3.1-2.7c0,0-0.4-0.4-0.8-0.4
			c-0.4,0-0.4-0.4-0.8-0.4c-0.4,0-0.4-0.4-0.4-0.4c-0.4-0.8-0.8-0.8-1.2-0.4c-0.4-0.8-0.8-1.5-1.2-2.3c-0.4-0.4-0.4-0.8-0.8-1.2
			c0-0.4-0.4-0.4-0.4-0.8c-0.8-0.4-0.8-0.4-0.8-1.2h-0.4l0,0c0-1.2,0-1.5-1.2-2.3c0,0,0,0-0.4-0.4c0-0.4-0.4-0.4-0.4-0.8l-0.4-0.4
			c0.4-0.8-0.8-1.2-0.8-2.3c0.8-0.4,0.8-1.5,0.8-2.3s0-1.5,0.4-1.9c0,0,0,0.4,0,0.8h0.4c0.4-0.4,0-0.4-0.4-1.2
			c0.8-0.8,0.4-1.9,0.8-3.1c0,0.4,0,0.4,0.4,0.8c0-0.4,0-0.4,0-0.8s0-0.8,0.4-0.8c0,0,0-0.4,0-0.8c0.8-0.4,1.2-1.2,1.2-1.9v-0.4
			c0.8-0.8,0.4-1.9,1.2-2.7c0.8-2.3,1.5-4.2,1.9-6.5c0-0.8,0.4-1.5,0.4-2.3c0-0.4,0-0.4,0-0.8c0-0.8,0-1.5,0.4-2.3s0.8-1.9,0.4-2.7
			c0-0.8,0-0.8,0.4-1.2c-0.4-0.8-1.2-1.9-1.5-2.7l-0.4-0.4c-1.2,0.4-1.5-0.4-1.9-0.8c0,0,0,0-0.4,0c0,0.4,0,0.8,0,1.2
			c0,0.4,0,0.4-0.8,0.8c0-0.4,0-0.8,0-1.2c0,1.5,0,2.7-0.8,4.2c0,0,0,0-0.4,0v-0.4c0-0.8,0.4-1.2-0.4-1.9l0,0c0.4-1.5-0.4-2.7,0-4.2
			c0.4-0.8,0-1.5,0-2.3c0-0.4-0.4-0.8-0.4-1.2s0-0.8,0.8-1.2c0-0.4,0-0.8,0-1.2c0-0.4,0-0.8,0-1.2c0.4-0.8,0.4-1.2,0-1.9
			c0-0.4,0-0.8,0.4-1.2c1.5,1.5,1.9,3.5,3.1,5.4c0.4-0.4,0.4-0.4,0.8-0.8c0.8,1.2,1.5,2.7,2.3,3.8l0,0c0.4,0.4,0,1.2,0.8,1.5
			c0.4,0.4,0.4,1.2,0.8,1.5c0.4,0.8,0.4,1.9,0.8,2.7c-0.4,1.9,0.8,3.5,1.2,5.4c0,0.4,0,0.4,0,0.8c-0.4,0-0.4,0-0.8,0c0,0,0,0-0.4,0
			c0,1.2,0.8,2.7,0,3.8c-0.4-0.4-0.4-0.8-0.8-1.2c0,1.2,0,2.3,0,3.1v0.4c-1.2,3.5-1.5,6.5-2.7,10c-0.4,0.8-0.4,1.5-0.8,2.3
			c-0.4,1.2-0.4,2.3-0.4,3.5c0,0.4,0,0.8,0,1.5c0,0.4,0,0.8,0,1.5c0.4,1.2,0.8,2.7,1.5,3.8c1.2,1.5,2.3,2.7,3.5,4.2
			c0.8,0.8,1.2,1.5,1.9,1.9c0.8,0.8,1.5,1.2,2.3,1.9c0.8,0.4,1.5,1.2,2.3,1.5c1.5,0.8,3.1,1.5,4.6,2.3c0.8,0.4,1.5,0.8,2.7,0.8
			c0-0.4,0.4-0.8,0.4-1.2l0,0c0,0.4,0,0.8,0.4,1.2c0.4-0.8,0.8-1.2,1.2-1.9c0.8-1.2,1.5-1.9,2.3-2.7c0.4-0.4,0.8-0.8,0.8,0
			c1.2-0.4,1.2-1.5,0.8-2.3c-0.4-2.3-0.4-4.6-0.4-7.3c0-0.8,0-1.5,0-2.3c-0.4-1.9,0-3.5,0-5.4c0-0.4,0-0.8-0.4-1.2c0,0,0-0.4,0-0.8
			c0-0.8,0-1.9,0-2.7c0-0.8,0-1.5,0-2.3c0-1.2,0-1.9,0.4-3.1c0-1.2,0-1.9,0-3.1s0-1.9,0.4-3.1c0-0.8,0-1.5,0-2.7s0.4-1.9,0.4-3.1
			c0-0.4,0-0.4,0-0.8c-0.4,0-0.4,0-0.8,0v-0.4c0.4-3.1,0.8-6.1,1.2-9.2c0-1.2,0-1.9-0.8-2.7c-0.4,0.4-1.2,0.8-1.5,1.2
			c-0.8,0.4-1.2,0.8-1.9,1.2c-0.8,0.4-1.2,0.8-1.9,1.2c0.4-0.4,0.4-0.8,0.8-1.5c-0.4,0-0.4,0.4-0.8,0.4c0-0.4,0-0.4,0-0.4
			c0.8-1.5,1.5-3.5,2.3-5c0.4-0.4,0.4-1.2,0.8-1.5c0.8-0.8,1.2-1.9,1.5-2.7c0.4-1.2,0.8-1.9,1.2-3.1c0.4-0.8,1.2-1.5,1.5-2.3
			c0,0,0,0,0.4,0c-0.4,0.8-0.8,1.5-1.2,2.7c0,0.4,0,0.4-0.4,0.8c0,0.4-0.4,0.8-0.4,0.8s0,0,0.4,0c0-0.4,0-0.8,0.4-1.2
			c0.4-0.4,0.4-0.8,0.8-1.2c0.4-0.4,0.4-0.8,0.8-1.2c0.8-0.8,0.8-0.8,0.4-1.5c0-0.8,0.4-1.2,0.4-1.9c0,0,0,0,0.4,0
			c0.4,1.2,0.8,1.9,1.5,3.1c0,0,0,0,0.4,0c-0.4-0.8-0.4-1.2-0.8-1.9c-0.4-0.8,0-1.2,0.4-1.9c0,2.7,1.9,4.6,3.1,6.9
			c0-1.5-0.4-2.7-1.2-3.8c-0.4-1.2-0.8-1.9-1.5-3.1c0-0.4,0-0.4,0.4-0.8c3.1,5,5.8,10.4,8.4,15.7v0.4c-0.8-0.4-0.8-0.8-1.2-1.2
			c-0.4-0.4-0.8-0.8-1.2-1.5c0,0.8,0,1.2,0.4,1.5c0.8,0.8,1.2,1.5,1.9,1.9c0.4,0,0.4,0.8,0,1.2l-0.4-0.4c-0.8-0.8-1.5-1.2-2.3-1.9
			c-0.4,0-0.4-0.8-0.8,0h-0.4c-0.4,0-0.4-0.4-0.8-0.4l0,0c0.4,0.8,0.4,1.2,0,1.9v0.4c0.4,1.2,0,2.3-0.4,3.5c0,1.2,0,2.3-0.4,3.5
			c0,0.8,0,1.9,0,2.7c0,0.8,0,1.5,0,2.3c0.4,0,0.8,0,1.2,0c0.4,2.3,0,4.2-0.4,6.1c-0.4,3.1-0.8,5.8-0.4,8.8c0,1.5,0.4,3.5,0.4,5
			c0,0.4,0,0.4,0,0.4c-0.8,0.4-0.4,0.8-0.4,1.5c0,0.4,0,0.8-0.8,0.8c0,1.5,0,3.1,0.4,4.6c0,1.2,0.4,2.7,0.4,3.8v0.4
			c0,0.4,0,0.8,0,1.2s0,1.2,0,1.5c0,1.2,0,2.3,0.8,3.5s1.2,1.9,2.3,2.7c0.4,0.4,0.8,0.8,1.2,1.2c0.8-0.4,1.5,0,2.3,0.4
			c0.4,0.4,0.8,0,1.2,0c0.4-0.4,1.2-0.4,1.5-0.4c-0.4,0-0.4,0.4-0.8,0.4l0,0c0.4,0,0.4-0.4,0.8-0.4c0,0,0,0-0.4,0V112
			c0.8-0.4,1.5-1.2,2.3-1.5c0.8-0.4,1.5-0.8,2.3-0.8c0.4,0,1.2,0,1.5-0.8l0.4-0.4c1.5-0.8,2.7-1.9,4.2-2.7c1.2-0.8,1.9-1.5,2.3-2.7
			c0.4-0.8,0.8-1.9,1.2-2.7c0.4-1.2,0.4-2.3,0.4-3.8c0-1.2,0-2.3-0.4-3.5c0-1.2,0-2.3-0.4-3.5c0-0.4-0.4-0.8-0.8-0.8
			c-0.4-0.4-0.4-0.8-0.8-1.2c0-1.2-0.4-2.7-0.4-3.8c0-1.5-0.8-3.5-0.8-5c-0.4,0-0.4,0.4-0.8,0.4c0-0.4-0.4-0.4-0.4-0.8
			c0-1.2,0.4-2.3,0.4-3.5c0-0.4,0-0.8,0-1.2s0-1.2-0.4-1.5c0.4,0,0.4,0,0.4,0c0-0.8-0.4-1.2-0.4-1.9c0,0-0.4,0.4-0.8,0.8
			c0-0.4,0-0.4,0-0.4c0.8-1.5,1.5-3.1,2.3-4.6c0.4-0.8,0.4-1.9,0.8-2.7c0-0.4,0.4-1.2,0.8-1.5c1.2-1.9,2.3-3.8,3.1-5.8
			c0-0.4,0.4-0.4,0.4-0.8c0.8-0.4,1.5-1.2,1.9-1.9s1.2-1.2,1.9-2.3c0,1.2,0.4,1.9,0.4,2.7c0,0.8-0.4,1.9,0,2.7c0.4,0.8,0,1.5,0,2.3
			c0,2.7,0,5.4,0.4,7.7c0,0.4,0,0.8-0.4,0.8c0-0.4,0-0.8-0.4-0.8c0,0-0.4,0-0.4-0.4c0.4-0.4,0.4-0.4,0-0.8c0,0.4,0,0.8,0,0.8
			s0,0,0,0.4c-0.4,0-0.4,0-0.8,0c-0.4,0.8,0.4,1.2,0.4,1.2c0.4,0.4,0.4,0.8,0.8,1.2c0,0-0.4,0.4-0.8,0.4c-0.4-0.4-0.4-0.8-1.2-1.2
			c-0.4-0.4-0.8-0.8-0.8-1.5c-0.4-0.4-0.4-0.8-0.8-1.2c-0.4,0-0.8,0-1.2,0c-0.4,1.2-0.8,1.9-0.4,3.1c0,1.2,0,2.3-0.4,3.5
			c0,0.4,0,0.4,0,0.8c0.8,3.1,1.2,6.5,1.9,9.6c0,0.4,0.4,0.8,0.4,1.2c0.8,1.2,1.2,2.7,1.5,4.2c0.4,1.5,0.8,3.5,1.2,5
			c0.4,0.8,0.4,1.9,0.8,2.7c0,0.8,0.4,1.2,0.8,1.9c0,0.4,0.4,0.4-0.4,0.8v0.4c0,1.2,0,1.9,0,3.1c0,0.4,0,1.2-0.4,1.2
			c0,0,0,0.4-0.4,0.4c-0.4,1.5-1.2,3.1-1.9,4.6c-0.4,0.8-0.4,1.2-0.8,1.9c-0.4,0.4-0.8,1.2-1.2,1.5C993,111.2,992.6,111.6,992.2,112
			v-0.4c-0.4,0-0.4,0-0.4,0.4c0,0,0,0,0,0.4C991.8,112,992.2,112,992.2,112z M980.3,115.4h-0.4C979.9,115.4,979.9,115.4,980.3,115.4
			L980.3,115.4c0-0.4,0-0.4,0.4-0.8c0,0,0,0-0.4,0C980.3,115.1,980.3,115.1,980.3,115.4z M980.3,113.1c0.4-0.4,0.4-0.4,0.4-1.2
			C980.7,112.8,980.7,113.1,980.3,113.1c-0.4,0.4-0.8,0.8-0.8,1.2C979.9,114.3,980.3,113.9,980.3,113.1z M928.2,99.3L928.2,99.3
			c-0.4-0.4-0.4-0.4-0.8-0.8c0,0-0.4,0-0.4-0.4v-0.4c-0.4,0.4-0.4,0.4-0.8,0.8c0.4,0,0.8,0,0.8,0c0,0.4,0.4,0.8,0.4,1.5
			C928.2,99.7,928.2,99.7,928.2,99.3c0,0.4,0,1.2,0,1.5C928.6,100.1,928.6,100.1,928.2,99.3z M959.2,117.4c0-0.4,0-0.8,0-1.2l0,0
			C959.2,116.6,959.2,117,959.2,117.4C958.8,117.4,958.8,117.7,959.2,117.4c-0.4,1.2-0.8,2.3-0.8,3.1c0,0.4,0,0.8,0,1.5
			c0.4-0.4,0.4-0.8,0.8-1.5C958.8,119.3,958.8,118.5,959.2,117.4z M929.3,94.7c0.4,0.4,0.8,0.8,1.2,1.2c0.4-1.2-0.4-1.5-0.4-2.3
			c-0.4-0.4-0.4-0.4-0.8-0.8c0,0.8,0.4,1.2,0.4,1.5C929.3,94.3,929.7,94.7,929.3,94.7C928.9,94.7,928.9,94.7,929.3,94.7
			c-0.4,0.4-0.8,0.8-1.2,0.8h0.4c0.4,0.4,0.8,1.2,0.4,1.5c0-0.4-0.4-0.4-0.4-0.8c0,0.8,0,1.2,0,1.5c0.4,0.8,0.8,1.2,0.8,1.9
			c0,0,0.4,0,0.4,0.4c0-0.4,0-0.4,0.4-0.8c0.4,0,0.4,0.8,1.2,0.4c-0.4-0.8-0.4-1.5-0.8-2.3C929.7,96.6,929.7,95.5,929.3,94.7z
			 M958.1,69.4C958.5,69.4,958.5,69.4,958.1,69.4c0.4-0.4,0.8-0.8,0.8-1.2c0-1.2,0.4-2.3,0.4-3.5c0-0.8,0-1.9,0-2.7
			c-0.8,1.2,0,2.3-0.4,3.8C958.5,66.7,958.5,67.9,958.1,69.4z M965,60.2c0.4-0.8,0.4-1.2,0.8-1.5c0-0.4,0-0.4,0-0.8
			c-0.4-0.4-0.8-0.8-0.8-1.2c-0.4,0-0.8,0-1.2,0c-0.4,0.8,0,0.8,0.4,0.8s0.8,0.4,1.2,0.4C965,58.3,965,58.7,965,60.2z M976.9,111.6
			c0,0.4,0,0.8,0,1.2c0.4,0,0.8,0,1.2,0s0.8,0.4,1.2,0.4c0-0.4,0-0.4,0-0.8c-0.4,0-1.2,0-1.5,0c0.4,0,0.8-0.4,1.2-0.4
			C978,110.8,977.3,111.6,976.9,111.6z M979.6,118.1c0.8-0.4,0.8-1.2,1.2-1.5c0.4-0.8,0.4-1.2,0.8-1.9c0.4-0.4,0.4-1.2,0.8-1.5
			c0,0,0,0-0.4,0c-0.4,0.8-0.8,1.5-1.5,2.7C980.3,116.6,979.9,117.4,979.6,118.1z M932.4,102.8c1.2,1.5,1.9,3.1,3.1,4.6
			c0.4-0.4,0-0.8-0.4-1.2c-0.8-1.2-1.9-1.9-1.5-3.5C933.5,103.2,933.2,102.8,932.4,102.8z M934.7,109.7
			C934.7,109.7,934.7,109.3,934.7,109.7c-0.8-1.5-1.9-2.3-2.7-3.5c0,0-0.4,0-0.4-0.4C932.4,107.4,933.2,108.5,934.7,109.7z
			 M963.5,85.1L963.5,85.1c-0.4,1.9-0.8,3.5-0.4,5.4c0,0,0,0,0.4,0C963.5,89,963.5,87.1,963.5,85.1z M977.3,110.8
			c1.2,0.4,2.3-0.4,2.7-1.2C979.2,109.7,978.4,110.1,977.3,110.8z M964.2,60.6c0,1.2,0,2.3,0,3.8C964.6,62.9,964.6,61.7,964.2,60.6z
			 M934.7,84.4C934.7,84.4,935.1,84.4,934.7,84.4c0.8-1.5,1.2-3.1,1.2-4.6h-0.4C935.5,80.9,935.1,82.5,934.7,84.4z M976.1,118.1
			c-0.8,0.4-1.9,1.2-2.3,1.9C975,120,975.7,119.3,976.1,118.1z M939.3,110.1c-0.8-1.2-1.2-2.3-2.3-3.1
			C937.8,108.2,938.5,109.3,939.3,110.1z M962.7,56c0.4-1.2,0.8-1.9,0.8-3.5C963.1,53.3,962.7,54.8,962.7,56z M979.6,116.6
			C979.6,116.6,979.2,116.6,979.6,116.6c-0.4,0.8-0.4,1.2-1.2,1.9v0.4c0.4,0.4,0.4,0,0.4,0c0.4-0.4,0.4-0.8,0.8-1.2
			C979.6,117,979.6,116.6,979.6,116.6z M962.7,80.5c-0.4,1.2,0,2.3,0.4,2.7C962.7,82.5,963.5,81.7,962.7,80.5z M931.2,97L931.2,97
			c-0.4,0.4-0.8,0.8-0.4,1.5c0.4,0,0.8,0,1.2-0.4C931.6,97.8,931.6,97.4,931.2,97z M973,113.5C973,113.9,973,113.9,973,113.5
			c0.4,1.2,0.8,1.2,1.9,0.4C974.2,113.9,973.4,113.9,973,113.5z M979.2,115.4L979.2,115.4c-0.8,0.4-1.9,2.3-1.9,3.1
			C978,117.4,978.8,116.2,979.2,115.4z M935.8,72.1C935.8,72.1,935.8,71.7,935.8,72.1c-0.4,1.5-0.4,2.7-0.8,4.2l0,0
			C935.5,74.8,935.8,73.3,935.8,72.1z M954.6,114.3L954.6,114.3c0.8-0.8,1.5-1.9,1.9-2.7c0,0,0,0-0.4,0
			C955.8,112.4,955,113.1,954.6,114.3z M966.5,53.3c0,1.2,0.4,1.5,1.5,1.9C967.3,54.5,966.9,54.1,966.5,53.3z M960.4,71.3
			L960.4,71.3c-0.4,0.8-0.4,1.9,0,2.7C960.4,73.3,960.4,72.1,960.4,71.3z M932.4,85.9c-0.4,0.8,0.4,1.2,0.8,1.5h0.4
			C933.9,86.7,932.8,86.7,932.4,85.9z M958.5,117.4c-0.8,1.5-0.8,2.3-0.8,3.1V120C958.1,118.9,958.1,118.1,958.5,117.4z M964.6,56
			c-0.4-0.4-0.4-1.2-0.8-1.5c-0.4,0.4-0.4,0.8-0.4,0.8C963.8,56,963.8,56,964.6,56z M974.6,116.6c-1.2,0.4-1.9,1.2-2.3,1.9
			C973.4,117.7,973.8,117,974.6,116.6z M961.9,92.4L961.9,92.4c0-0.8,0-1.9,0-2.7c0,0,0,0-0.4,0C961.5,90.5,961.9,91.7,961.9,92.4z
			 M960.8,90.9c0.4-0.8,0.4-1.5,0-2.3C960.4,89.4,960.4,90.1,960.8,90.9z M965,133.5c0,0.4,0,0.8,0.4,0.8c0,0,0,0,0.4,0
			c0-0.4,0-0.4,0-0.8C965.8,133.5,965.4,133.5,965,133.5z M982.6,117c0.4,0.4,1.2,0,1.2-0.4c-0.4,0-0.4-0.4-0.8-0.4
			C983,116.6,983,117,982.6,117z M932,60.2C932,60.2,932.4,60.2,932,60.2c0-0.8-0.4-1.5-0.4-2.3c0,0,0,0-0.4,0
			C931.6,58.7,932,59.4,932,60.2z M932.4,104.7C932,104.7,932,104.7,932.4,104.7c0,0.4,0.4,1.2,0.8,1.5
			C933.2,105.1,932.4,105.1,932.4,104.7z M960,77.9c0,0.8-0.4,1.5,0,2.3C960,79.4,960,78.6,960,77.9z M960,108.9
			C960,108.9,960.4,108.9,960,108.9c0-0.8,0-1.5-0.4-1.9C959.6,107.4,959.6,108.2,960,108.9z M963.5,59.1c-0.4,0.8-0.4,0.8-0.4,1.9
			C963.5,60.2,963.5,59.8,963.5,59.1z M991.1,103.9c-0.8,0.4-0.8,0.4-0.8,1.2C990.7,104.7,991.1,104.7,991.1,103.9z M968.1,123.9
			c0.4-0.4,0.8-0.4,0.8-1.2C968.1,122.7,968.1,122.7,968.1,123.9z M955.4,110.8c0.4-0.4,1.2-0.8,1.2-1.5
			C956.2,109.7,955.8,110.5,955.4,110.8z M996.4,100.9L996.4,100.9c0.4-0.4,0.4-1.2,0-1.5h-0.4C996.4,99.7,996.4,100.1,996.4,100.9z
			 M956.2,114.7C955.8,114.7,955.8,114.7,956.2,114.7c-0.4,0.8-1.2,1.2-0.8,1.9C955.4,116.2,955.8,115.4,956.2,114.7z M928.9,101.6
			c0.4,0,0.8,0,0.8-0.8c-0.4,0-0.4,0-0.8,0C928.9,101.2,928.9,101.2,928.9,101.6z M946.6,113.1c0.4,0.4,1.2,0.4,1.5,0.8
			C947.7,113.5,947.7,113.1,946.6,113.1z M961.2,118.1C961.2,118.1,960.8,118.1,961.2,118.1c0,0.8,0,1.2,0,1.9l0,0
			C961.2,119.3,961.2,118.9,961.2,118.1z M956.2,135.4c0.4,0,0.8-0.4,0.8-0.4c0-0.4-0.4-0.8-0.4-1.2
			C956.5,134.6,956.5,135,956.2,135.4z M962.3,60.6c0-0.8,0-1.2,0.4-1.5c0,0,0,0-0.4,0C962.3,59.4,962.3,59.8,962.3,60.6z
			 M989.1,62.9L989.1,62.9c-0.4,0.4-0.8,0.8-0.8,1.5l0,0C988.8,63.7,989.1,63.3,989.1,62.9z M945,115.8c0-0.4-0.4-0.4-0.8-0.4
			C943.9,115.8,944.7,115.8,945,115.8z M931.2,100.5c0,1.2,0,1.2,0.8,1.2C932,101.2,931.6,100.9,931.2,100.5z M970,120.8
			C970,120.8,970.4,120.8,970,120.8c0.4,0,0.8-0.4,0.8-0.8l0,0C970.7,120.4,970.4,120.4,970,120.8z M930.1,101.2c0.4,0,0.8,0,0.8,0
			C930.5,100.9,930.5,100.9,930.1,101.2z M953.5,113.5L953.5,113.5c-0.4,0.4-0.8,0.4-0.4,1.2C953.5,114.3,953.5,113.9,953.5,113.5z
			 M956.2,53.7L956.2,53.7c-0.4,0.4-0.8,0.8-0.8,1.2c0,0,0,0,0.4,0C955.8,54.8,955.8,54.5,956.2,53.7z M959.2,83.2L959.2,83.2
			c0-0.4,0-1.2,0-1.5l0,0C959.2,82.1,959.2,82.5,959.2,83.2z M960.8,59.8C960.4,59.8,960.4,59.8,960.8,59.8c0,0.4,0,1.2,0,1.5l0,0
			C960.8,61,960.8,60.6,960.8,59.8z M961.9,110.5C961.9,110.5,961.5,110.5,961.9,110.5c-0.4,0.4-0.4,0.8-0.4,1.2l0,0
			C961.5,111.2,961.9,110.8,961.9,110.5z M964.6,67.9L964.6,67.9c0-0.4,0-1.2,0-1.5l0,0C964.6,67.1,964.6,67.5,964.6,67.9z
			 M990.7,82.1C990.7,82.1,991.1,82.1,990.7,82.1c0.4-0.4,0.4-0.8,0.4-1.2c0,0,0,0-0.4,0C990.7,81.3,990.7,81.7,990.7,82.1z
			 M932.4,99.3c-0.4,0-0.8-0.4-1.2-0.4C932,99.3,932,99.3,932.4,99.3z M953.9,59.4L953.9,59.4c0.4,0,0.8-0.4,0.8-1.2
			C954.2,58.7,953.9,59.1,953.9,59.4z M996.1,65.6c0-0.4,0-0.8,0-1.2C995.7,64.8,995.7,65.2,996.1,65.6z M975.3,115.4
			c0.4,0,0.4,0,0.8,0C975.7,115.1,975.7,115.1,975.3,115.4z M991.1,102.4L991.1,102.4c-0.4,0-0.4,0.4-0.8,0.8c0,0,0,0,0.4,0
			C991.1,103.2,991.1,102.8,991.1,102.4z M985.3,110.8L985.3,110.8c-0.4,0.4-0.8,0.4-0.8,0.8c0,0,0,0,0.4,0
			C984.9,111.6,985.3,111.2,985.3,110.8z M958.8,93.6L958.8,93.6c0,0.4,0,0.8,0,1.2l0,0C958.8,94.3,958.8,94,958.8,93.6z
			 M936.6,77.9L936.6,77.9c-0.4,0.4-0.4,0.4-0.4,0.8l0,0C936.6,78.2,936.6,78.2,936.6,77.9z M961.2,54.8
			C961.2,54.8,960.8,54.8,961.2,54.8c-0.4,0-0.4,0.4-0.4,0.8c0,0,0,0,0.4,0C960.8,55.2,961.2,55.2,961.2,54.8z M961.2,115.1
			L961.2,115.1c0-0.4,0-0.4,0-0.8l0,0C961.2,114.7,961.2,114.7,961.2,115.1z M962.3,52.5L962.3,52.5c-0.4,0.4-0.4,0.8-0.4,0.8
			s0,0,0.4,0C962.3,53.3,962.3,52.9,962.3,52.5z M962.3,73.3L962.3,73.3c0-0.4,0-0.8,0-1.2l0,0C962.3,72.5,962.3,72.9,962.3,73.3z
			 M968.4,56C968.8,56,968.8,56,968.4,56c0-0.4-0.4-0.4-0.4-0.4l0,0C968.4,56,968.4,56,968.4,56z M993.4,84.8L993.4,84.8
			c0-0.4,0-0.4,0-0.8l0,0C993.4,84,993.4,84.4,993.4,84.8z M962.3,103.6L962.3,103.6c0,0.4,0,0.4,0,0.8c0,0,0,0,0.4,0
			C962.7,103.9,962.7,103.9,962.3,103.6z M975,121.2L975,121.2c0.4,0,0.4,0,0.4,0l0,0C975,120.8,975,121.2,975,121.2z M984.2,110.1
			L984.2,110.1c0.4,0,0.4-0.4,0.4-0.4l0,0C984.5,109.7,984.5,110.1,984.2,110.1z M987.6,113.5L987.6,113.5c-0.4,0-0.4,0.4-0.4,0.4
			l0,0C987.6,113.9,987.6,113.5,987.6,113.5z M958.8,135L958.8,135c0-0.4,0-0.4-0.4-0.4v0.4C958.5,134.6,958.5,135,958.8,135z
			 M942,115.4C942,115.4,942,115.1,942,115.4C942,115.1,942,115.1,942,115.4c-0.4-0.4-0.4-0.4-0.4-0.4
			C941.6,115.1,942,115.4,942,115.4z M934.3,107.4L934.3,107.4c0-0.4,0-0.4-0.4-0.8c0,0,0,0-0.4,0
			C933.9,107,933.9,107.4,934.3,107.4z M991.4,79C991.4,78.6,991.8,78.6,991.4,79c0.4-0.4,0.4-0.4,0.4-0.8l0,0
			C991.4,78.6,991.4,78.6,991.4,79z M958.8,92.4L958.8,92.4V92l0,0V92.4z M988,112.4c0,0.4-0.8,0.4,0,0.8
			C988,112.8,988,112.4,988,112.4z M978,113.9L978,113.9c0-0.4-0.4-0.4-0.4-0.4l0,0C977.6,113.9,978,113.9,978,113.9z M971.5,112.8
			L971.5,112.8C971.5,112.8,971.1,112.8,971.5,112.8c-0.4-0.4-0.4-0.4-0.4,0C971.1,112.8,971.5,112.8,971.5,112.8z M994.5,103.9
			L994.5,103.9C994.5,103.9,994.1,103.9,994.5,103.9c0,0.4,0,0.4,0,0.4l0,0C994.5,103.9,994.5,103.9,994.5,103.9z M965,105.9
			L965,105.9c0,0.4,0,0.4,0,0.8l0,0C965,106.2,965,106.2,965,105.9z M927.8,96.3L927.8,96.3c-0.4,0-0.4,0.4-0.4,0.4l0,0
			C927.8,96.3,927.8,96.3,927.8,96.3z M961.2,113.1L961.2,113.1c0-0.4,0-0.4,0-0.8l0,0C961.2,112.8,961.2,113.1,961.2,113.1z"/>
	</g>
</g>
<g>
	<path fill="#F2383E" d="M595.7,493.6c5.4,15.7,19.2,18,33.4,14.2c11.9-3.1,18.4-9.6,16.5-16.5c-1.9-7.7-10-6.9-19.9-6.1l-24.5,2.3
		c-21.9,1.5-39.5-6.1-45.6-28.4c-6.9-26.1,9.2-46.8,41-55.2c35.3-9.2,58.7,2.7,67.1,31.1l-31.4,8.8c-4.6-13-15.7-16.5-28.8-13
		c-11.5,3.1-16.5,9.2-14.6,16.1c1.5,5.8,6.9,6.9,15.3,6.1l25.3-2.3c28-2.3,43.7,8.4,49.5,29.1c7.3,27.2-12.7,46.8-42.6,54.8
		c-34.5,9.2-63.7-1.2-72.1-31.8L595.7,493.6z"/>
	<path fill="#F2383E" d="M777.8,503.6l-35.7-89h-0.8l12.3,92l-32.6,4.2l-17.3-130.8l54.8-7.3l30.3,79.8h0.8l7.7-84.8l53.3-6.9
		L868,491.7l-35.3,4.6l-12.3-92h-0.8l-11.5,95.1L777.8,503.6z"/>
	<path fill="#F2383E" d="M967.3,492.8c-38.4,0-68.7-27.6-68.7-68.3c0-40.7,29.9-68.7,68.3-68.7c38.4,0,68.7,27.6,68.7,68.3
		C1035.6,464.4,1005.6,492.4,967.3,492.8z M966.9,387c-19.6,0-31.8,15-31.8,37.2c0,22.2,12.7,37.2,31.8,36.8
		c19.6,0,31.8-15,31.8-37.2S986.1,387,966.9,387z"/>
	<path fill="#F2383E" d="M1149.8,503.6l-29.9-56.8l-13,11.1l-5,39.9l-35.3-4.2l16.5-131.2l35.3,4.6l-6.5,52.9l53.7-47.2l40.7,5
		l-57.5,49.5l43.7,82.1L1149.8,503.6z"/>
	<path fill="#F2383E" d="M1333.2,406.9l37.2,9.2l-69,67.5l-11.9,48.7l-33.8-8.4l11.9-48.7l-29.1-92l38.4,9.6L1294,446L1333.2,406.9z
		"/>
</g>
<g>
	<g>
		<path fill="#F2383E" d="M434.6,1042.8c0.4,5.4,4.2,7.7,8.8,7.7c4.2,0,6.9-1.5,6.9-4.6c0-2.7-1.9-3.5-5.8-4.2l-6.5-1.2
			c-5.4-1.2-8.8-3.8-8.8-9.6c0-6.5,5-10.4,13-10.4c8.8,0,13.8,4.6,13.8,12.3l-6.1,0.4c-0.4-4.6-3.1-6.9-7.7-6.9
			c-3.8,0-6.1,1.9-6.1,4.6c0,2.3,1.9,3.5,5,3.8l6.1,1.2c6.5,1.2,9.6,4.2,9.6,10c0,6.5-5.8,10.4-13.4,10.4c-8.8,0-15-4.6-15-12.7
			L434.6,1042.8z"/>
		<path fill="#F2383E" d="M478.3,1055.1v-28.4h-11.9v-5.8h30.7v5.8h-12.3v28.4H478.3z"/>
		<path fill="#F2383E" d="M531.2,1055.1c-0.8-0.8-1.2-3.1-1.5-6.9c-0.4-3.8-1.9-5.4-5.8-5.4h-8.1v12.7h-6.5v-33.7h15.3
			c8.8,0,13,4.2,13,10.4c0,5-3.5,8.1-7.3,8.4c3.8,0.8,5.8,3.1,6.1,6.9c0.4,5,0.8,6.9,1.5,8.1h-6.9V1055.1z M523.6,1037.4
			c5,0,7.3-1.5,7.3-5.4c0-3.5-2.3-5.4-7.3-5.4h-7.7v10.7H523.6z"/>
		<path fill="#F2383E" d="M569.2,1021.3l13.8,33.7h-7.3l-3.5-8.4h-14.6l-3.5,8.4h-6.9l13.8-33.7H569.2z M560,1041.6h10.4l-5-12.7
			H565L560,1041.6z"/>
		<path fill="#F2383E" d="M601,1021.3v33.7h-6.9v-33.7H601z"/>
		<path fill="#F2383E" d="M613.3,1038.2c0-10.4,7.3-17.6,16.9-17.6s15.3,5.4,16.1,13.8l-6.5,0.4c-0.4-5-3.8-8.4-9.6-8.4
			c-6.1,0-10,4.6-10,11.5c0,7.3,4.2,11.9,10.7,11.9c4.6,0,8.4-2.7,9.2-6.9h-8.8v-5h15.3v17.3h-6.1v-5c-1.5,3.8-5.8,5.8-10.7,5.8
			C620.2,1055.8,613.3,1048.6,613.3,1038.2z"/>
		<path fill="#F2383E" d="M660.1,1055.1v-33.7h6.9v13.8h16.9v-13.8h6.9v33.7h-6.9v-14.6H667v14.6H660.1z"/>
		<path fill="#F2383E" d="M714.5,1055.1v-28.4h-11.9v-5.8h30.7v5.8h-12.3v28.4H714.5z"/>
		<path fill="#F2383E" d="M763.3,1055.1v-33.7h24.2v5.8h-17.6v9.2h13.4v5.4h-13.4v13.8h-6.5V1055.1z"/>
		<path fill="#F2383E" d="M821.9,1055.1c-0.8-0.8-1.2-3.1-1.5-6.9c-0.4-3.8-1.9-5.4-5.8-5.4h-8.1v12.7h-6.5v-33.7h15.3
			c8.8,0,13,4.2,13,10.4c0,5-3.5,8.1-7.3,8.4c3.8,0.8,5.8,3.1,6.1,6.9c0.4,5,0.8,6.9,1.5,8.1h-6.9V1055.1z M814.3,1037.4
			c5,0,7.3-1.5,7.3-5.4c0-3.5-2.3-5.4-7.3-5.4h-7.7v10.7H814.3z"/>
		<path fill="#F2383E" d="M856.4,1055.8c-10,0-17.3-7.3-17.3-17.6c0-10.4,7.3-17.6,17.3-17.6c10,0,17.3,7.3,17.3,17.6
			C873.7,1048.6,866.4,1055.8,856.4,1055.8z M856.4,1026.3c-6.1,0-10.4,4.6-10.4,11.5s3.8,11.5,10.4,11.5c6.5,0,10.4-4.6,10.4-11.5
			C866.8,1030.9,862.6,1026.3,856.4,1026.3z"/>
		<path fill="#F2383E" d="M900.9,1055.1l-8.4-26.5h-0.4v26.5H886v-33.7h10.7l7.3,24.5l0,0l6.9-24.5h10.4v33.7h-6.9v-26.5H914
			l-8.1,26.5H900.9z"/>
		<path fill="#F2383E" d="M963.5,1055.1v-28.4h-11.9v-5.8h30.7v5.8H970v28.4H963.5z"/>
		<path fill="#F2383E" d="M994.5,1055.1v-33.7h6.9v13.8h16.9v-13.8h6.9v33.7h-6.9v-14.6h-16.9v14.6H994.5z"/>
		<path fill="#F2383E" d="M1063.9,1055.1h-25.3v-33.7h24.9v5.8h-18v8.1h14.2v5.4h-14.2v8.8h18.8v5.8H1063.9z"/>
		<path fill="#F2383E" d="M1094.6,1021.3h12.7c10.7,0,17.6,6.5,17.6,16.9c0,10.7-6.9,16.9-17.6,16.9h-12.7V1021.3z M1106.9,1049.7
			c7.3,0,11.1-4.2,11.1-11.5c0-7.3-3.8-11.5-11.1-11.5h-5.8v23H1106.9z"/>
		<path fill="#F2383E" d="M1162.9,1055.1h-25.3v-33.7h24.9v5.8h-18v8.1h14.2v5.4h-14.2v8.8h18.8v5.8H1162.9z"/>
		<path fill="#F2383E" d="M1185.9,1055.1l-13.4-33.7h6.9l10,25.7h0.4l10-25.7h6.9l-13.4,33.7H1185.9z"/>
		<path fill="#F2383E" d="M1224.6,1021.3v33.7h-6.9v-33.7H1224.6z"/>
		<path fill="#F2383E" d="M1245.3,1021.3v28.4h18v5.8h-24.9v-33.7h6.9V1021.3z"/>
		<path fill="#F2383E" d="M1269.9,1021.3h6.9v6.1c0,4.6-1.9,6.5-6.9,6.9v-3.5c2.3,0,3.1-0.8,3.5-3.1h-3.5V1021.3z"/>
		<path fill="#F2383E" d="M1293.3,1042.8c0.4,5.4,4.2,7.7,8.8,7.7c4.2,0,6.9-1.5,6.9-4.6c0-2.7-1.9-3.5-5.8-4.2l-6.5-1.2
			c-5.4-1.2-8.8-3.8-8.8-9.6c0-6.5,5-10.4,13-10.4c8.8,0,13.8,4.6,13.8,12.3l-6.1,0.4c-0.4-4.6-3.1-6.9-7.7-6.9
			c-3.8,0-6.1,1.9-6.1,4.6c0,2.3,1.9,3.5,5,3.8l6.1,1.2c6.5,1.2,9.6,4.2,9.6,10c0,6.5-5.8,10.4-13.4,10.4c-8.8,0-15-4.6-15-12.7
			L1293.3,1042.8z"/>
		<path fill="#F2383E" d="M1364.6,1021.3l13.8,33.7h-7.3l-3.5-8.4h-14.2l-3.5,8.4h-6.9l13.8-33.7H1364.6z M1355.4,1041.6h10.4
			l-5-12.7h-0.4L1355.4,1041.6z"/>
		<path fill="#F2383E" d="M1411.4,1055.1c-0.8-0.8-1.2-3.1-1.5-6.9c-0.4-3.8-1.9-5.4-5.8-5.4h-8.1v12.7h-6.5v-33.7h15.3
			c8.8,0,13,4.2,13,10.4c0,5-3.5,8.1-7.3,8.4c3.8,0.8,5.8,3.1,6.1,6.9c0.4,5,0.8,6.9,1.5,8.1h-6.9V1055.1z M1404.1,1037.4
			c5,0,7.3-1.5,7.3-5.4c0-3.5-2.3-5.4-7.3-5.4h-7.7v10.7H1404.1z"/>
		<path fill="#F2383E" d="M1435.2,1042.8c0.4,5.4,4.2,7.7,8.8,7.7c4.2,0,6.9-1.5,6.9-4.6c0-2.7-1.9-3.5-5.8-4.2l-6.5-1.2
			c-5.4-1.2-8.8-3.8-8.8-9.6c0-6.5,5-10.4,13-10.4c8.8,0,13.8,4.6,13.8,12.3l-6.1,0.4c-0.4-4.6-3.1-6.9-7.7-6.9
			c-3.8,0-6.1,1.9-6.1,4.6c0,2.3,1.9,3.5,5,3.8l6.1,1.2c6.5,1.2,9.6,4.2,9.6,10c0,6.5-5.8,10.4-13.4,10.4c-8.8,0-15-4.6-15-12.7
			L1435.2,1042.8z"/>
		<path fill="#F2383E" d="M1495.4,1055.1h-25.3v-33.7h24.9v5.8h-18v8.1h14.2v5.4H1477v8.8h18.8v5.8H1495.4z"/>
	</g>
</g>
<line fill="none" stroke="#F2383E" stroke-miterlimit="10" x1="962.3" y1="711.1" x2="962.3" y2="942.7"/>
</svg>
